<?xml version="1.0" encoding="iso-8859-1"?>
<!-- Generator: Adobe Illustrator 19.0.0, SVG Export Plug-In . SVG Version: 6.00 Build 0)  -->
<svg version="1.1" id="Layer_1" xmlns="http://www.w3.org/2000/svg" xmlns:xlink="http://www.w3.org/1999/xlink" x="0px" y="0px"
	 viewBox="0 0 512 512" style="enable-background:new 0 0 512 512;" xml:space="preserve">
<g>
	<g>
		<g>
			<path d="M495.123,290.6C503.033,280.834,512,269.766,512,256c0-13.765-8.967-24.834-16.877-34.599
				c-4.943-6.102-10.054-12.413-11.195-17.427c-1.229-5.405,0.683-13.556,2.532-21.438c2.819-12.023,6.016-25.649,0.23-37.643
				c-5.884-12.195-18.664-18.224-29.939-23.542c-7.214-3.404-14.673-6.922-17.998-11.086c-3.364-4.214-5.156-12.308-6.888-20.137
				c-2.682-12.13-5.724-25.878-16.24-34.275c-10.467-8.358-24.516-8.284-36.9-8.212c-8.055,0.044-16.376,0.09-21.291-2.281
				c-4.725-2.279-9.781-8.722-14.671-14.951c-7.731-9.85-16.493-21.016-29.804-24.042c-12.853-2.923-25.347,3.192-36.37,8.588
				c-7.339,3.591-14.929,7.306-20.59,7.306c-5.66,0-13.25-3.715-20.59-7.308c-11.023-5.395-23.512-11.508-36.371-8.588
				c-13.311,3.026-22.074,14.191-29.805,24.043c-4.89,6.23-9.945,12.671-14.669,14.95c-4.915,2.371-13.23,2.328-21.291,2.281
				c-12.385-0.067-26.433-0.146-36.901,8.212c-10.515,8.397-13.557,22.145-16.239,34.275c-1.732,7.829-3.523,15.923-6.888,20.137
				c-3.325,4.164-10.784,7.682-17.999,11.086c-11.275,5.319-24.055,11.347-29.939,23.542c-5.786,11.993-2.589,25.621,0.23,37.644
				c1.85,7.883,3.762,16.033,2.533,21.438c-1.14,5.014-6.251,11.324-11.195,17.426C8.967,231.166,0,242.235,0,256
				s8.967,24.834,16.878,34.6c4.942,6.102,10.054,12.413,11.195,17.426c1.229,5.405-0.683,13.556-2.532,21.438
				c-2.82,12.023-6.017,25.65-0.232,37.644c5.884,12.195,18.665,18.224,29.939,23.543c7.214,3.403,14.674,6.922,17.999,11.085
				c3.364,4.214,5.154,12.308,6.886,20.136c2.682,12.13,5.723,25.879,16.24,34.276c10.466,8.358,24.51,8.282,36.9,8.212
				c8.055-0.042,16.377-0.09,21.291,2.281c4.725,2.28,9.781,8.722,14.671,14.952c7.731,9.85,16.493,21.016,29.804,24.042
				c12.851,2.919,25.346-3.193,36.371-8.588c7.339-3.592,14.929-7.307,20.589-7.307c5.661,0,13.251,3.715,20.591,7.308
				c9.05,4.429,19.09,9.344,29.51,9.344c2.271,0,4.559-0.233,6.86-0.756c13.311-3.026,22.074-14.191,29.805-24.043
				c4.89-6.23,9.945-12.671,14.669-14.95c4.915-2.371,13.235-2.325,21.291-2.281c12.38,0.065,26.434,0.146,36.901-8.212
				c10.515-8.397,13.557-22.145,16.239-34.275c1.732-7.829,3.523-15.923,6.888-20.137c3.325-4.164,10.784-7.682,17.999-11.086
				c11.275-5.319,24.055-11.348,29.939-23.542c5.786-11.993,2.589-25.62-0.23-37.643c-1.849-7.883-3.761-16.035-2.532-21.441
				C485.069,303.011,490.18,296.702,495.123,290.6z M477.825,276.588c-6.547,8.082-13.316,16.439-15.604,26.504
				c-2.369,10.419,0.14,21.114,2.567,31.458c2.074,8.842,4.218,17.985,1.853,22.886c-2.459,5.097-11.064,9.156-19.387,13.082
				c-9.512,4.487-19.348,9.127-25.897,17.329c-6.588,8.251-8.947,18.911-11.226,29.219c-1.979,8.948-4.026,18.199-8.395,21.688
				c-4.321,3.449-13.755,3.397-22.888,3.347c-10.583-0.058-21.53-0.118-31.087,4.492c-9.375,4.523-16.051,13.03-22.508,21.257
				c-5.712,7.278-11.618,14.803-17.229,16.079c-5.187,1.18-13.557-2.914-21.648-6.874c-9.617-4.708-19.561-9.576-30.377-9.576
				c-10.817,0-20.76,4.867-30.377,9.574c-8.091,3.96-16.463,8.06-21.649,6.875c-5.61-1.276-11.517-8.801-17.228-16.078
				c-6.458-8.228-13.134-16.735-22.511-21.258c-8.485-4.094-18.063-4.504-27.513-4.504c-1.192,0-2.386,0.007-3.573,0.013
				c-9.128,0.047-18.569,0.102-22.888-3.347c-4.371-3.489-6.417-12.741-8.396-21.689c-2.28-10.308-4.637-20.968-11.225-29.219
				c-6.55-8.201-16.385-12.841-25.897-17.328c-8.323-3.926-16.928-7.986-19.387-13.083c-2.365-4.902-0.22-14.045,1.853-22.888
				c2.426-10.342,4.936-21.038,2.568-31.457c-2.288-10.066-9.058-18.423-15.605-26.504c-5.856-7.23-11.912-14.707-11.912-20.588
				c0-5.881,6.056-13.357,11.914-20.588c6.547-8.081,13.316-16.437,15.605-26.505c2.369-10.418-0.141-21.113-2.568-31.457
				c-2.074-8.842-4.218-17.985-1.853-22.888c2.459-5.097,11.064-9.156,19.387-13.082c9.512-4.487,19.348-9.127,25.897-17.329
				c6.588-8.251,8.947-18.911,11.226-29.219c1.979-8.948,4.026-18.199,8.395-21.688c4.321-3.449,13.752-3.398,22.888-3.347
				c10.586,0.061,21.53,0.119,31.087-4.492c9.375-4.523,16.051-13.03,22.508-21.257c5.712-7.278,11.618-14.803,17.229-16.079
				c5.186-1.183,13.558,2.914,21.649,6.875c9.616,4.708,19.56,9.576,30.376,9.576c10.817,0,20.761-4.867,30.378-9.576
				c8.091-3.96,16.46-8.055,21.648-6.874c5.61,1.276,11.517,8.801,17.228,16.078c6.458,8.228,13.134,16.735,22.511,21.258
				c9.555,4.61,20.486,4.547,31.086,4.491c9.119-0.049,18.569-0.102,22.888,3.347c4.37,3.489,6.417,12.741,8.396,21.688
				c2.279,10.309,4.638,20.969,11.226,29.22c6.549,8.202,16.385,12.841,25.896,17.329c8.323,3.926,16.928,7.985,19.387,13.082
				c2.365,4.902,0.22,14.044-1.853,22.886c-2.426,10.342-4.935,21.039-2.567,31.456c2.287,10.066,9.057,18.424,15.604,26.506
				c5.856,7.231,11.912,14.708,11.912,20.588S483.683,269.358,477.825,276.588z"/>
			<path d="M256,77.913c-98.198,0-178.087,79.89-178.087,178.087S157.802,434.087,256,434.087S434.087,354.197,434.087,256
				S354.198,77.913,256,77.913z M256,411.826c-85.922,0-155.826-69.904-155.826-155.826S170.077,100.174,256,100.174
				S411.826,170.077,411.826,256S341.923,411.826,256,411.826z"/>
			<path d="M305.023,206.977c-4.348-4.346-11.393-4.346-15.742,0L177.606,318.652c-4.346,4.346-4.346,11.394,0,15.742
				c2.174,2.174,5.022,3.26,7.87,3.26s5.697-1.087,7.87-3.26l111.675-111.676C309.369,218.371,309.369,211.323,305.023,206.977z"/>
			<path d="M326.817,196.313c2.851,0,5.7-1.089,7.873-3.262l0.802-0.802c4.345-4.349,4.343-11.395-0.006-15.741
				c-4.346-4.346-11.395-4.342-15.741,0.004l-0.802,0.802c-4.345,4.349-4.343,11.395,0.006,15.741
				C321.123,195.228,323.969,196.313,326.817,196.313z"/>
			<path d="M243.399,201.661c0-23.016-18.724-41.739-41.739-41.739s-41.739,18.724-41.739,41.739S178.645,243.4,201.66,243.4
				S243.399,224.675,243.399,201.661z M182.182,201.661c0-10.74,8.739-19.478,19.478-19.478s19.478,8.738,19.478,19.478
				c0,10.74-8.739,19.478-19.478,19.478S182.182,212.401,182.182,201.661z"/>
			<path d="M310.34,268.601c-23.016,0-41.739,18.724-41.739,41.739c0,23.015,18.724,41.739,41.739,41.739
				s41.739-18.724,41.739-41.739C352.079,287.324,333.355,268.601,310.34,268.601z M310.34,329.818
				c-10.74,0-19.478-8.739-19.478-19.478s8.739-19.478,19.478-19.478s19.478,8.739,19.478,19.478S321.081,329.818,310.34,329.818z"
				/>
		</g>
	</g>
</g>
<g>
</g>
<g>
</g>
<g>
</g>
<g>
</g>
<g>
</g>
<g>
</g>
<g>
</g>
<g>
</g>
<g>
</g>
<g>
</g>
<g>
</g>
<g>
</g>
<g>
</g>
<g>
</g>
<g>
</g>
</svg>
