<?xml version="1.0" encoding="iso-8859-1"?>
<!-- Generator: Adobe Illustrator 19.0.0, SVG Export Plug-In . SVG Version: 6.00 Build 0)  -->
<svg version="1.1" id="Capa_1" xmlns="http://www.w3.org/2000/svg" xmlns:xlink="http://www.w3.org/1999/xlink" x="0px" y="0px"
	 viewBox="0 0 511.999 511.999" style="enable-background:new 0 0 511.999 511.999;" xml:space="preserve">
<radialGradient id="SVGID_1_" cx="-172.5332" cy="347.7133" r="348.6" gradientTransform="matrix(0.9724 0.2497 0.2497 -0.9724 299.6624 476.1712)" gradientUnits="userSpaceOnUse">
	<stop  offset="0.002" style="stop-color:#FFEE95"/>
	<stop  offset="0.106" style="stop-color:#FFED91"/>
	<stop  offset="0.215" style="stop-color:#FFEB84"/>
	<stop  offset="0.327" style="stop-color:#FFE86F"/>
	<stop  offset="0.44" style="stop-color:#FFE452"/>
	<stop  offset="0.554" style="stop-color:#FFDE2C"/>
	<stop  offset="0.664" style="stop-color:#FFD700"/>
	<stop  offset="0.729" style="stop-color:#FFD605"/>
	<stop  offset="0.802" style="stop-color:#FFD212"/>
	<stop  offset="0.878" style="stop-color:#FFCC28"/>
	<stop  offset="0.956" style="stop-color:#FFC447"/>
	<stop  offset="1" style="stop-color:#FFBF5C"/>
</radialGradient>
<path style="fill:url(#SVGID_1_);" d="M466.129,291.273c19.558-76.172,1.118-150.028-41.694-186.979
	c-7.778-6.713-13.507-15.358-17.277-24.915c-3.01-7.629-9.509-13.757-18.061-15.952c-8.55-2.196-17.198,0.043-23.512,5.279
	c-7.909,6.559-17.094,11.374-27.144,13.51c-55.318,11.755-107.059,67.592-126.618,143.764s-1.118,150.028,41.694,186.979
	c7.778,6.713,13.507,15.358,17.277,24.915c3.01,7.629,9.509,13.757,18.06,15.952s17.198-0.043,23.511-5.279
	c7.909-6.559,17.094-11.374,27.144-13.51C394.831,423.282,446.572,367.445,466.129,291.273z"/>
<g>
	<circle style="fill:#FFD700;" cx="370.447" cy="98.384" r="10.193"/>
	<circle style="fill:#FFD700;" cx="377.273" cy="116.133" r="5.096"/>
	<circle style="fill:#FFD700;" cx="293.155" cy="142.175" r="5.096"/>
	<circle style="fill:#FFD700;" cx="291.81" cy="178.095" r="5.096"/>
	<circle style="fill:#FFD700;" cx="314.247" cy="160.466" r="5.096"/>
</g>
<linearGradient id="SVGID_2_" gradientUnits="userSpaceOnUse" x1="349.5963" y1="123.5105" x2="65.7872" y2="407.3204" gradientTransform="matrix(1.0039 0 0 -1.0039 0.1922 516.5598)">
	<stop  offset="0" style="stop-color:#FF931E;stop-opacity:0"/>
	<stop  offset="1" style="stop-color:#FF5D00"/>
</linearGradient>
<path style="fill:url(#SVGID_2_);" d="M282.166,194.851c-12.552-13.173-27.492-24.127-44.168-32.392
	c-11.189,18.818-20.189,40.213-26.173,63.517c-19.558,76.172-1.118,150.028,41.694,186.979c7.778,6.713,13.507,15.358,17.277,24.915
	c3.01,7.629,9.509,13.757,18.06,15.952c8.551,2.196,17.198-0.043,23.512-5.279c7.909-6.559,17.094-11.374,27.144-13.51
	c38.798-8.244,75.834-38.175,101.245-81.595L282.166,194.851z"/>
<linearGradient id="SVGID_3_" gradientUnits="userSpaceOnUse" x1="53.9286" y1="322.2228" x2="345.9386" y2="30.2128" gradientTransform="matrix(1.0039 0 0 -1.0039 0.1922 516.5598)">
	<stop  offset="0" style="stop-color:#FFEE95"/>
	<stop  offset="0.227" style="stop-color:#FFE978"/>
	<stop  offset="0.718" style="stop-color:#FFDE2D"/>
	<stop  offset="1" style="stop-color:#FFD700"/>
</linearGradient>
<path style="fill:url(#SVGID_3_);" d="M323.807,300.699c-0.249,89.416-72.923,156.745-162.339,156.496
	C72.05,456.946-0.248,389.215,0.001,299.799s72.918-155.093,162.335-154.845C251.753,145.202,324.055,211.282,323.807,300.699z"/>
<path style="fill:#FFF0CA;" d="M308.937,300.733c-0.226,81.205-66.226,142.35-147.431,142.124S14.643,381.12,14.869,299.915
	s66.222-140.85,147.427-140.624C243.5,159.518,309.163,219.528,308.937,300.733z"/>
<g>
	
		<radialGradient id="SVGID_4_" cx="158.5155" cy="216.6502" r="195.88" gradientTransform="matrix(1.0039 0.0028 0.0028 -1.0039 3.5258 518.9573)" gradientUnits="userSpaceOnUse">
		<stop  offset="0.002" style="stop-color:#FFEE95"/>
		<stop  offset="0.277" style="stop-color:#FFEE93"/>
		<stop  offset="0.376" style="stop-color:#FFED8C"/>
		<stop  offset="0.447" style="stop-color:#FFEB81"/>
		<stop  offset="0.504" style="stop-color:#FFE870"/>
		<stop  offset="0.552" style="stop-color:#FFE55A"/>
		<stop  offset="0.596" style="stop-color:#FFE13E"/>
		<stop  offset="0.634" style="stop-color:#FFDC1F"/>
		<stop  offset="0.664" style="stop-color:#FFD700"/>
		<stop  offset="0.818" style="stop-color:#FFD702"/>
		<stop  offset="0.873" style="stop-color:#FFD509"/>
		<stop  offset="0.912" style="stop-color:#FFD214"/>
		<stop  offset="0.944" style="stop-color:#FFCD25"/>
		<stop  offset="0.972" style="stop-color:#FFC83B"/>
		<stop  offset="0.996" style="stop-color:#FFC156"/>
		<stop  offset="1" style="stop-color:#FFBF5C"/>
	</radialGradient>
	<path style="fill:url(#SVGID_4_);" d="M67.456,385.397c-5.272-0.015-10.128-2.406-13.322-6.561
		c-12.646-16.443-21.143-35.999-24.571-56.551c-0.818-4.909,0.565-9.907,3.797-13.712c3.255-3.831,8.002-6.021,13.027-6.006
		l95.023,0.264c2.708,0.008,5.122,1.63,6.151,4.135c1.029,2.504,0.454,5.356-1.466,7.265L79.519,380.44
		c-3.228,3.21-7.511,4.97-12.061,4.957C67.457,385.397,67.457,385.397,67.456,385.397z"/>
	
		<radialGradient id="SVGID_5_" cx="158.5155" cy="216.6502" r="195.88" gradientTransform="matrix(1.0039 0.0028 0.0028 -1.0039 3.5258 518.9573)" gradientUnits="userSpaceOnUse">
		<stop  offset="0.002" style="stop-color:#FFEE95"/>
		<stop  offset="0.277" style="stop-color:#FFEE93"/>
		<stop  offset="0.376" style="stop-color:#FFED8C"/>
		<stop  offset="0.447" style="stop-color:#FFEB81"/>
		<stop  offset="0.504" style="stop-color:#FFE870"/>
		<stop  offset="0.552" style="stop-color:#FFE55A"/>
		<stop  offset="0.596" style="stop-color:#FFE13E"/>
		<stop  offset="0.634" style="stop-color:#FFDC1F"/>
		<stop  offset="0.664" style="stop-color:#FFD700"/>
		<stop  offset="0.818" style="stop-color:#FFD702"/>
		<stop  offset="0.873" style="stop-color:#FFD509"/>
		<stop  offset="0.912" style="stop-color:#FFD214"/>
		<stop  offset="0.944" style="stop-color:#FFCD25"/>
		<stop  offset="0.972" style="stop-color:#FFC83B"/>
		<stop  offset="0.996" style="stop-color:#FFC156"/>
		<stop  offset="1" style="stop-color:#FFBF5C"/>
	</radialGradient>
	<path style="fill:url(#SVGID_5_);" d="M153.436,287.241c-1.767-0.005-3.432-0.706-4.692-1.972l-65.388-65.753
		c-3.648-3.668-5.417-8.724-4.856-13.87c0.556-5.096,3.339-9.598,7.635-12.354c16.441-10.549,34.868-17.351,54.771-20.215
		c0.833-0.119,1.68-0.18,2.516-0.177c9.386,0.026,17,7.668,16.974,17.036l-0.252,90.648c-0.005,1.872-0.756,3.598-2.114,4.859
		C156.776,286.607,155.145,287.245,153.436,287.241L153.436,287.241z"/>
	
		<radialGradient id="SVGID_6_" cx="158.5155" cy="216.6502" r="195.88" gradientTransform="matrix(1.0039 0.0028 0.0028 -1.0039 3.5258 518.9573)" gradientUnits="userSpaceOnUse">
		<stop  offset="0.002" style="stop-color:#FFEE95"/>
		<stop  offset="0.277" style="stop-color:#FFEE93"/>
		<stop  offset="0.376" style="stop-color:#FFED8C"/>
		<stop  offset="0.447" style="stop-color:#FFEB81"/>
		<stop  offset="0.504" style="stop-color:#FFE870"/>
		<stop  offset="0.552" style="stop-color:#FFE55A"/>
		<stop  offset="0.596" style="stop-color:#FFE13E"/>
		<stop  offset="0.634" style="stop-color:#FFDC1F"/>
		<stop  offset="0.664" style="stop-color:#FFD700"/>
		<stop  offset="0.818" style="stop-color:#FFD702"/>
		<stop  offset="0.873" style="stop-color:#FFD509"/>
		<stop  offset="0.912" style="stop-color:#FFD214"/>
		<stop  offset="0.944" style="stop-color:#FFCD25"/>
		<stop  offset="0.972" style="stop-color:#FFC83B"/>
		<stop  offset="0.996" style="stop-color:#FFC156"/>
		<stop  offset="1" style="stop-color:#FFBF5C"/>
	</radialGradient>
	<path style="fill:url(#SVGID_6_);" d="M46.196,298.937c-4.985-0.014-9.697-2.203-12.925-6.004c-3.214-3.785-4.604-8.76-3.815-13.65
		c3.356-20.795,11.917-40.49,24.755-56.955c3.218-4.127,8.083-6.485,13.347-6.471c4.551,0.013,8.824,1.797,12.035,5.025
		l66.577,66.949c1.908,1.919,2.469,4.775,1.426,7.273c-1.043,2.499-3.467,4.108-6.174,4.101L46.196,298.937z"/>
	
		<radialGradient id="SVGID_7_" cx="158.5155" cy="216.6502" r="195.88" gradientTransform="matrix(1.0039 0.0028 0.0028 -1.0039 3.5258 518.9573)" gradientUnits="userSpaceOnUse">
		<stop  offset="0.002" style="stop-color:#FFEE95"/>
		<stop  offset="0.277" style="stop-color:#FFEE93"/>
		<stop  offset="0.376" style="stop-color:#FFED8C"/>
		<stop  offset="0.447" style="stop-color:#FFEB81"/>
		<stop  offset="0.504" style="stop-color:#FFE870"/>
		<stop  offset="0.552" style="stop-color:#FFE55A"/>
		<stop  offset="0.596" style="stop-color:#FFE13E"/>
		<stop  offset="0.634" style="stop-color:#FFDC1F"/>
		<stop  offset="0.664" style="stop-color:#FFD700"/>
		<stop  offset="0.818" style="stop-color:#FFD702"/>
		<stop  offset="0.873" style="stop-color:#FFD509"/>
		<stop  offset="0.912" style="stop-color:#FFD214"/>
		<stop  offset="0.944" style="stop-color:#FFCD25"/>
		<stop  offset="0.972" style="stop-color:#FFC83B"/>
		<stop  offset="0.996" style="stop-color:#FFC156"/>
		<stop  offset="1" style="stop-color:#FFBF5C"/>
	</radialGradient>
	<path style="fill:url(#SVGID_7_);" d="M170.442,287.288c-3.687-0.01-6.68-3.013-6.67-6.693l0.252-90.648
		c0.026-9.368,7.683-16.967,17.069-16.941c0.835,0.002,1.682,0.066,2.515,0.192c19.886,2.974,38.275,9.878,54.658,20.519
		c4.28,2.78,7.037,7.299,7.566,12.396c0.533,5.15-1.264,10.196-4.932,13.843l-65.752,65.387
		C173.88,286.601,172.209,287.293,170.442,287.288L170.442,287.288z"/>
	
		<radialGradient id="SVGID_8_" cx="158.5155" cy="216.6502" r="195.88" gradientTransform="matrix(1.0039 0.0028 0.0028 -1.0039 3.5258 518.9573)" gradientUnits="userSpaceOnUse">
		<stop  offset="0.002" style="stop-color:#FFEE95"/>
		<stop  offset="0.277" style="stop-color:#FFEE93"/>
		<stop  offset="0.376" style="stop-color:#FFED8C"/>
		<stop  offset="0.447" style="stop-color:#FFEB81"/>
		<stop  offset="0.504" style="stop-color:#FFE870"/>
		<stop  offset="0.552" style="stop-color:#FFE55A"/>
		<stop  offset="0.596" style="stop-color:#FFE13E"/>
		<stop  offset="0.634" style="stop-color:#FFDC1F"/>
		<stop  offset="0.664" style="stop-color:#FFD700"/>
		<stop  offset="0.818" style="stop-color:#FFD702"/>
		<stop  offset="0.873" style="stop-color:#FFD509"/>
		<stop  offset="0.912" style="stop-color:#FFD214"/>
		<stop  offset="0.944" style="stop-color:#FFCD25"/>
		<stop  offset="0.972" style="stop-color:#FFC83B"/>
		<stop  offset="0.996" style="stop-color:#FFC156"/>
		<stop  offset="1" style="stop-color:#FFBF5C"/>
	</radialGradient>
	<path style="fill:url(#SVGID_8_);" d="M142.714,429.108c-0.855-0.002-1.721-0.069-2.572-0.201
		c-19.759-3.029-38.069-10.022-54.422-20.786c-4.25-2.798-6.98-7.318-7.491-12.4c-0.516-5.13,1.283-10.156,4.937-13.789
		l65.49-65.126c1.267-1.259,2.936-1.951,4.703-1.946c3.688,0.01,6.68,3.013,6.67,6.694l-0.252,90.611
		c-0.013,4.582-1.82,8.869-5.089,12.069c-3.223,3.155-7.474,4.887-11.973,4.874C142.715,429.108,142.715,429.108,142.714,429.108z"
		/>
	
		<radialGradient id="SVGID_9_" cx="158.5155" cy="216.6502" r="195.88" gradientTransform="matrix(1.0039 0.0028 0.0028 -1.0039 3.5258 518.9573)" gradientUnits="userSpaceOnUse">
		<stop  offset="0.002" style="stop-color:#FFEE95"/>
		<stop  offset="0.277" style="stop-color:#FFEE93"/>
		<stop  offset="0.376" style="stop-color:#FFED8C"/>
		<stop  offset="0.447" style="stop-color:#FFEB81"/>
		<stop  offset="0.504" style="stop-color:#FFE870"/>
		<stop  offset="0.552" style="stop-color:#FFE55A"/>
		<stop  offset="0.596" style="stop-color:#FFE13E"/>
		<stop  offset="0.634" style="stop-color:#FFDC1F"/>
		<stop  offset="0.664" style="stop-color:#FFD700"/>
		<stop  offset="0.818" style="stop-color:#FFD702"/>
		<stop  offset="0.873" style="stop-color:#FFD509"/>
		<stop  offset="0.912" style="stop-color:#FFD214"/>
		<stop  offset="0.944" style="stop-color:#FFCD25"/>
		<stop  offset="0.972" style="stop-color:#FFC83B"/>
		<stop  offset="0.996" style="stop-color:#FFC156"/>
		<stop  offset="1" style="stop-color:#FFBF5C"/>
	</radialGradient>
	<path style="fill:url(#SVGID_9_);" d="M180.374,429.213c-9.382-0.026-16.993-7.67-16.967-17.038l0.252-90.611
		c0.01-3.68,3.019-6.667,6.707-6.657c1.767,0.005,3.432,0.706,4.692,1.972l65.126,65.49c3.633,3.653,5.405,8.689,4.86,13.816
		c-0.539,5.08-3.295,9.584-7.561,12.358c-16.412,10.674-34.761,17.566-54.536,20.484
		C182.096,429.153,181.231,429.215,180.374,429.213C180.375,429.213,180.375,429.213,180.374,429.213z"/>
	
		<radialGradient id="SVGID_10_" cx="158.5155" cy="216.6502" r="195.88" gradientTransform="matrix(1.0039 0.0028 0.0028 -1.0039 3.5258 518.9573)" gradientUnits="userSpaceOnUse">
		<stop  offset="0.002" style="stop-color:#FFEE95"/>
		<stop  offset="0.277" style="stop-color:#FFEE93"/>
		<stop  offset="0.376" style="stop-color:#FFED8C"/>
		<stop  offset="0.447" style="stop-color:#FFEB81"/>
		<stop  offset="0.504" style="stop-color:#FFE870"/>
		<stop  offset="0.552" style="stop-color:#FFE55A"/>
		<stop  offset="0.596" style="stop-color:#FFE13E"/>
		<stop  offset="0.634" style="stop-color:#FFDC1F"/>
		<stop  offset="0.664" style="stop-color:#FFD700"/>
		<stop  offset="0.818" style="stop-color:#FFD702"/>
		<stop  offset="0.873" style="stop-color:#FFD509"/>
		<stop  offset="0.912" style="stop-color:#FFD214"/>
		<stop  offset="0.944" style="stop-color:#FFCD25"/>
		<stop  offset="0.972" style="stop-color:#FFC83B"/>
		<stop  offset="0.996" style="stop-color:#FFC156"/>
		<stop  offset="1" style="stop-color:#FFBF5C"/>
	</radialGradient>
	<path style="fill:url(#SVGID_10_);" d="M182.391,299.316c-2.708-0.007-5.122-1.63-6.151-4.135
		c-1.029-2.504-0.454-5.356,1.466-7.265l66.949-66.577c3.228-3.21,7.512-4.97,12.063-4.957c5.265,0.015,10.116,2.4,13.311,6.546
		c12.747,16.537,21.197,36.28,24.437,57.093c0.762,4.894-0.657,9.862-3.891,13.628c-3.25,3.784-7.973,5.946-12.959,5.932
		L182.391,299.316z"/>
	
		<radialGradient id="SVGID_11_" cx="158.5155" cy="216.6502" r="195.88" gradientTransform="matrix(1.0039 0.0028 0.0028 -1.0039 3.5258 518.9573)" gradientUnits="userSpaceOnUse">
		<stop  offset="0.002" style="stop-color:#FFEE95"/>
		<stop  offset="0.277" style="stop-color:#FFEE93"/>
		<stop  offset="0.376" style="stop-color:#FFED8C"/>
		<stop  offset="0.447" style="stop-color:#FFEB81"/>
		<stop  offset="0.504" style="stop-color:#FFE870"/>
		<stop  offset="0.552" style="stop-color:#FFE55A"/>
		<stop  offset="0.596" style="stop-color:#FFE13E"/>
		<stop  offset="0.634" style="stop-color:#FFDC1F"/>
		<stop  offset="0.664" style="stop-color:#FFD700"/>
		<stop  offset="0.818" style="stop-color:#FFD702"/>
		<stop  offset="0.873" style="stop-color:#FFD509"/>
		<stop  offset="0.912" style="stop-color:#FFD214"/>
		<stop  offset="0.944" style="stop-color:#FFCD25"/>
		<stop  offset="0.972" style="stop-color:#FFC83B"/>
		<stop  offset="0.996" style="stop-color:#FFC156"/>
		<stop  offset="1" style="stop-color:#FFBF5C"/>
	</radialGradient>
	<path style="fill:url(#SVGID_11_);" d="M255.874,385.921c-4.551-0.013-8.824-1.797-12.035-5.025l-66.208-66.577
		c-1.908-1.919-2.469-4.775-1.426-7.273c1.043-2.499,3.467-4.108,6.174-4.101l95.023,0.264c5.025,0.014,9.76,2.23,12.993,6.079
		c3.211,3.823,4.567,8.827,3.721,13.732c-3.543,20.533-12.147,40.041-24.885,56.413
		C266.015,383.572,261.146,385.935,255.874,385.921C255.874,385.921,255.875,385.921,255.874,385.921z"/>
</g>
<linearGradient id="SVGID_12_" gradientUnits="userSpaceOnUse" x1="467.4561" y1="358.5104" x2="401.8762" y2="424.0904" gradientTransform="matrix(1.0039 0 0 -1.0039 0.1922 516.5598)">
	<stop  offset="0" style="stop-color:#FF931E;stop-opacity:0"/>
	<stop  offset="1" style="stop-color:#FF5D00"/>
</linearGradient>
<path style="fill:url(#SVGID_12_);" d="M465.311,170.512c-8.282-27.146-22.278-50.166-40.877-66.218
	c-7.778-6.713-13.507-15.358-17.277-24.915c-3.01-7.629-9.509-13.757-18.06-15.952c-0.157-0.04-0.313-0.068-0.47-0.105
	c-1.472,2.388-1.976,5.367-1.111,8.28c6.585,22.18,16.279,37.742,27.414,48.532L465.311,170.512z"/>
<linearGradient id="SVGID_13_" gradientUnits="userSpaceOnUse" x1="481.1752" y1="396.8025" x2="330.9652" y2="483.3725" gradientTransform="matrix(1.0039 0 0 -1.0039 0.1922 516.5598)">
	<stop  offset="0" style="stop-color:#9EB644"/>
	<stop  offset="1" style="stop-color:#738611"/>
</linearGradient>
<path style="fill:url(#SVGID_13_);" d="M511.621,126.156c-6.955-24.841-33.09-87.588-116.691-67.421
	c-5.694,1.373-9.08,7.25-7.413,12.866c24.477,82.442,91.869,73.587,116.848,67.147C509.877,137.326,513.156,131.637,511.621,126.156
	z"/>
<linearGradient id="SVGID_14_" gradientUnits="userSpaceOnUse" x1="431.0494" y1="387.4306" x2="495.7194" y2="499.6466" gradientTransform="matrix(1.0039 0 0 -1.0039 0.1922 516.5598)">
	<stop  offset="0" style="stop-color:#738611;stop-opacity:0"/>
	<stop  offset="1" style="stop-color:#738611"/>
</linearGradient>
<path style="fill:url(#SVGID_14_);" d="M510.602,134.026L388.435,63.631c-1.325,2.333-1.745,5.182-0.918,7.969
	c24.477,82.442,91.869,73.587,116.848,67.147C507.101,138.043,509.283,136.286,510.602,134.026z"/>
<g>
</g>
<g>
</g>
<g>
</g>
<g>
</g>
<g>
</g>
<g>
</g>
<g>
</g>
<g>
</g>
<g>
</g>
<g>
</g>
<g>
</g>
<g>
</g>
<g>
</g>
<g>
</g>
<g>
</g>
</svg>
