<svg height="511pt" viewBox="0 0 511 511.99944" width="511pt" xmlns="http://www.w3.org/2000/svg"><path d="m255.085938 256h-228.808594c-15.277344 0-27.304688-13.230469-25.621094-28.414062 6.191406-55.75 30.660156-109.855469 73.410156-152.605469 99.972656-99.972657 262.0625-99.972657 362.039063 0 99.972656 99.972656 99.972656 262.066406 0 362.039062-93.144531 93.144531-240.210938 99.507813-340.71875 19.089844-11.980469-9.582031-12.945313-27.464844-2.097657-38.3125zm0 0" fill="#f7a16e"/><path d="m436.105469 437.019531c99.972656-99.972656 99.972656-262.066406 0-362.039062-7.398438-7.398438-15.144531-14.234375-23.171875-20.535157-11.34375 11.339844-11.34375 29.730469 0 41.070313l.097656.097656c42.191406 42.191407 66.742188 99.164063 67.144531 158.832031.40625 60.703126-23.042969 117.839844-65.925781 160.71875-81.226562 81.230469-210.007812 88.457032-299.554688 16.8125l-19.769531-15.816406-1.636719 1.632813c-10.847656 10.847656-9.878906 28.734375 2.097657 38.316406 100.511719 80.417969 247.574219 74.054687 340.71875-19.089844zm0 0" fill="#ce795f"/><path d="m255.066406 256h-202.109375c0-50.152344 18.359375-96.097656 48.714844-131.464844 5.476563-6.382812 15.277344-6.65625 21.222656-.707031l72.878907 34.105469zm0 0" fill="#ffb545"/><path d="m123.601562 102.601562c31.65625-27.164062 71.78125-44.726562 115.816407-48.113281 8.441406-.648437 15.648437 6.039063 15.648437 14.503907l19.386719 77.953124-19.386719 109.054688-132.171875-132.171875c-5.945312-5.949219-5.675781-15.746094.707031-21.226563zm0 0" fill="#ffcf5d"/><path d="m270.714844 54.488281c44.035156 3.386719 84.164062 20.949219 115.816406 48.113281 6.382812 5.480469 6.65625 15.277344.707031 21.226563l-132.171875 132.171875v-187.007812c0-8.464844 7.207032-15.152344 15.648438-14.503907zm0 0" fill="#ffb545"/><path d="m255.066406 256 132.171875-132.171875c5.949219-5.949219 15.75-5.675781 21.226563.707031 27.167968 31.65625 44.726562 71.78125 48.113281 115.816406.652344 8.441407-6.039063 15.648438-14.503906 15.648438l-70.683594 19.386719zm0 0" fill="#ffcf5d"/><path d="m456.578125 271.648438c-3.386719 44.035156-20.945313 84.160156-48.113281 115.816406-5.480469 6.382812-15.277344 6.652344-21.226563.707031l-77.316406-38.542969-54.855469-93.628906h187.007813c8.464843 0 15.15625 7.207031 14.503906 15.648438zm0 0" fill="#ffb545"/><path d="m255.066406 256 132.171875 132.171875c5.949219 5.949219 5.675781 15.746094-.707031 21.222656-31.652344 27.167969-71.78125 44.730469-115.816406 48.117188-8.441406.648437-15.648438-6.039063-15.648438-14.503907l-19.386718-86.230468zm0 0" fill="#ffcf5d"/><path d="m255.066406 256v187.007812c0 8.464844-7.207031 15.152344-15.648437 14.503907-49.496094-3.808594-94.058594-25.523438-127.199219-58.664063zm0 0" fill="#ffb545"/><path d="m327.199219 96.320312c0 14.226563-11.53125 25.757813-25.753907 25.757813-14.226562 0-25.757812-11.53125-25.757812-25.757813 0-14.222656 11.53125-25.753906 25.757812-25.753906 14.222657 0 25.753907 11.53125 25.753907 25.753906zm0 0" fill="#28d05b"/><path d="m236.542969 363.136719c0 14.226562-11.53125 25.757812-25.757813 25.757812-14.222656 0-25.753906-11.53125-25.753906-25.757812 0-14.222657 11.53125-25.753907 25.753906-25.753907 14.226563 0 25.757813 11.53125 25.757813 25.753907zm0 0" fill="#28d05b"/><path d="m430.214844 178.734375c0 14.226563-11.527344 25.757813-25.753906 25.757813-14.222657 0-25.753907-11.53125-25.753907-25.757813 0-14.222656 11.53125-25.753906 25.753907-25.753906 14.226562 0 25.753906 11.53125 25.753906 25.753906zm0 0" fill="#28d05b"/><path d="m357.074219 395.074219c0 14.222656-11.53125 25.753906-25.753907 25.753906-14.226562 0-25.757812-11.53125-25.757812-25.753906 0-14.226563 11.53125-25.753907 25.757812-25.753907 14.222657 0 25.753907 11.527344 25.753907 25.753907zm0 0" fill="#28d05b"/><path d="m368.40625 219.945312c0 8.53125-6.917969 15.449219-15.453125 15.449219s-15.453125-6.917969-15.453125-15.449219c0-8.535156 6.917969-15.453124 15.453125-15.453124s15.453125 6.917968 15.453125 15.453124zm0 0" fill="#ff7e40"/><path d="m138.675781 181.828125c0 8.535156-6.917969 15.453125-15.453125 15.453125s-15.453125-6.917969-15.453125-15.453125 6.917969-15.453125 15.453125-15.453125 15.453125 6.917969 15.453125 15.453125zm0 0" fill="#ff7e40"/><path d="m236.542969 94.261719c0 8.535156-6.921875 15.453125-15.453125 15.453125-8.535156 0-15.453125-6.917969-15.453125-15.453125 0-8.535157 6.917969-15.453125 15.453125-15.453125 8.53125 0 15.453125 6.917968 15.453125 15.453125zm0 0" fill="#ff7e40"/><path d="m221.085938 147.835938c0 8.535156-6.917969 15.453124-15.449219 15.453124-8.535157 0-15.453125-6.917968-15.453125-15.453124 0-8.535157 6.917968-15.453126 15.453125-15.453126 8.53125 0 15.449219 6.917969 15.449219 15.453126zm0 0" fill="#ff7e40"/><path d="m447.730469 289.996094c0 8.535156-6.917969 15.453125-15.453125 15.453125s-15.453125-6.917969-15.453125-15.453125 6.917969-15.453125 15.453125-15.453125 15.453125 6.917969 15.453125 15.453125zm0 0" fill="#ff7e40"/><path d="m306.59375 343.566406c0 8.53125-6.917969 15.453125-15.453125 15.453125-8.53125 0-15.453125-6.921875-15.453125-15.453125 0-8.535156 6.921875-15.453125 15.453125-15.453125 8.535156 0 15.453125 6.917969 15.453125 15.453125zm0 0" fill="#ff7e40"/><path d="m221.089844 415.679688c0 8.53125-6.917969 15.449218-15.453125 15.449218-8.535157 0-15.453125-6.917968-15.453125-15.449218 0-8.535157 6.917968-15.453126 15.453125-15.453126 8.535156 0 15.453125 6.917969 15.453125 15.453126zm0 0" fill="#ff7e40"/><path d="m409.613281 343.566406c0 8.53125-6.917969 15.453125-15.453125 15.453125s-15.453125-6.921875-15.453125-15.453125c0-8.535156 6.917969-15.453125 15.453125-15.453125s15.453125 6.917969 15.453125 15.453125zm0 0" fill="#ff7e40"/><path d="m373.554688 295.148438c0 11.378906-9.222657 20.601562-20.601563 20.601562s-20.605469-9.222656-20.605469-20.601562c0-11.382813 9.226563-20.605469 20.605469-20.605469s20.601563 9.222656 20.601563 20.605469zm0 0" fill="#28d05b"/><path d="m188.125 218.914062c0 11.378907-9.226562 20.601563-20.605469 20.601563-11.378906 0-20.601562-9.222656-20.601562-20.601563 0-11.378906 9.222656-20.605468 20.601562-20.605468 11.378907 0 20.605469 9.226562 20.605469 20.605468zm0 0" fill="#28d05b"/><g fill="#00973c"><path d="m363.816406 114.148438c0 4.265624-3.460937 7.726562-7.726562 7.726562s-7.726563-3.460938-7.726563-7.726562c0-4.269532 3.460938-7.726563 7.726563-7.726563s7.726562 3.457031 7.726562 7.726563zm0 0"/><path d="m401.933594 305.761719c0 4.265625-3.460938 7.726562-7.726563 7.726562s-7.726562-3.460937-7.726562-7.726562 3.460937-7.726563 7.726562-7.726563 7.726563 3.460938 7.726563 7.726563zm0 0"/><path d="m284.492188 311.941406c0 4.269532-3.457032 7.726563-7.726563 7.726563-4.265625 0-7.726563-3.457031-7.726563-7.726563 0-4.265625 3.460938-7.726562 7.726563-7.726562 4.269531 0 7.726563 3.460937 7.726563 7.726562zm0 0"/><path d="m152.414062 129.644531c.855469-.390625 1.65625-.945312 2.351563-1.660156l31.941406-32.96875c2.96875-3.0625 2.890625-7.957031-.175781-10.925781-3.0625-2.96875-7.953125-2.886719-10.925781.171875l-31.941407 32.96875c-2.96875 3.066406-2.890624 7.957031.175782 10.925781 2.347656 2.277344 5.769531 2.761719 8.574218 1.488281zm0 0"/><path d="m305.390625 155.558594h20.605469c4.265625 0 7.726562-3.460938 7.726562-7.726563 0-4.269531-3.460937-7.726562-7.726562-7.726562h-20.605469c-4.265625 0-7.726563 3.457031-7.726563 7.726562 0 4.265625 3.460938 7.726563 7.726563 7.726563zm0 0"/><path d="m415.695312 245.257812c1.976563 0 3.953126-.757812 5.460938-2.265624 3.019531-3.015626 3.019531-7.910157 0-10.925782l-14.566406-14.570312c-3.019532-3.015625-7.910156-3.015625-10.925782 0-3.019531 3.019531-3.019531 7.910156 0 10.925781l14.566407 14.570313c1.511719 1.507812 3.488281 2.265624 5.464843 2.265624zm0 0"/><path d="m178.753906 399.78125c1.976563 0 3.953125-.753906 5.460938-2.261719 3.019531-3.015625 3.019531-7.910156 0-10.925781l-14.566406-14.570312c-3.019532-3.015626-7.910157-3.015626-10.925782 0-3.019531 3.019531-3.019531 7.910156 0 10.925781l14.566406 14.570312c1.507813 1.507813 3.484376 2.261719 5.464844 2.261719zm0 0"/><path d="m92.070312 239.074219c1.976563 0 3.957032-.753907 5.464844-2.261719l14.570313-14.570312c3.015625-3.019532 3.015625-7.910157 0-10.925782-3.019531-3.019531-7.910157-3.015625-10.929688 0l-14.566406 14.570313c-3.019531 3.015625-3.019531 7.910156 0 10.925781 1.507813 1.507812 3.484375 2.261719 5.460937 2.261719zm0 0"/><path d="m274.414062 399.78125c1.976563 0 3.953126-.753906 5.460938-2.261719l14.570312-14.570312c3.019532-3.015625 3.019532-7.90625 0-10.925781-3.015624-3.015626-7.910156-3.015626-10.925781 0l-14.570312 14.570312c-3.015625 3.019531-3.015625 7.910156 0 10.925781 1.507812 1.507813 3.488281 2.261719 5.464843 2.261719zm0 0"/><path d="m270.980469 196.832031c16.097656-16.03125 38.894531-21.304687 59.414062-15.851562 5.472657 20.4375.179688 43.136719-15.914062 59.167969-16.097657 16.03125-38.894531 21.304687-59.414063 15.851562v-31.6875c2.691406-10.0625 7.988282-19.582031 15.914063-27.480469zm0 0"/></g><path d="m285.824219 202.953125c0-29.292969-13.769531-53.042969-30.757813-53.042969-16.984375 0-30.753906 23.75-30.753906 53.042969 0 29.296875 13.769531 53.046875 30.753906 53.046875 16.988282 0 30.757813-23.75 30.757813-53.046875zm0 0" fill="#28d05b"/></svg>