<?xml version="1.0" encoding="iso-8859-1"?>
<!-- Generator: Adobe Illustrator 19.0.0, SVG Export Plug-In . SVG Version: 6.00 Build 0)  -->
<svg version="1.1" id="Capa_1" xmlns="http://www.w3.org/2000/svg" xmlns:xlink="http://www.w3.org/1999/xlink" x="0px" y="0px"
	 viewBox="0 0 512.001 512.001" style="enable-background:new 0 0 512.001 512.001;" xml:space="preserve">
<circle style="fill:#F7F0E6;" cx="256.001" cy="256.001" r="256"/>
<circle style="fill:#EEE2D4;" cx="256.001" cy="256.001" r="229.52"/>
<circle style="fill:#FF915A;" cx="256.001" cy="256.001" r="211.86"/>
<circle style="fill:#FFA55F;" cx="256.001" cy="256.001" r="185.38"/>
<g>
	<circle style="fill:#FF915A;" cx="225.841" cy="256.001" r="27.954"/>
	<circle style="fill:#FF915A;" cx="326.351" cy="235.691" r="25.848"/>
	<circle style="fill:#FF915A;" cx="270.081" cy="343.821" r="20.521"/>
	<circle style="fill:#FF915A;" cx="118.351" cy="262.171" r="20.521"/>
	<circle style="fill:#FF915A;" cx="258.671" cy="112.281" r="17.391"/>
	<circle style="fill:#FF915A;" cx="350.901" cy="309.521" r="17.391"/>
	<circle style="fill:#FF915A;" cx="356.411" cy="162.211" r="17.391"/>
	<circle style="fill:#FF915A;" cx="172.601" cy="375.631" r="15.828"/>
</g>
<path style="fill:#FBE6A5;" d="M181.699,397.242c-4.879,0-8.871-3.953-8.871-8.828s3.905-8.828,8.784-8.828h0.086
	c4.879,0,8.828,3.953,8.828,8.828S186.579,397.242,181.699,397.242z"/>
<path style="fill:#FFDC64;" d="M206.07,203.773c-4.879,0-8.871-3.953-8.871-8.828s3.897-8.828,8.776-8.828h0.095
	c4.879,0,8.828,3.953,8.828,8.828S210.949,203.773,206.07,203.773z"/>
<g>
	<path style="fill:#FBE6A5;" d="M190.898,107.035c-4.879,0-8.871-3.953-8.871-8.828s3.905-8.828,8.784-8.828h0.086
		c4.879,0,8.828,3.953,8.828,8.828S195.777,107.035,190.898,107.035z"/>
	<path style="fill:#FBE6A5;" d="M179.949,243.863c-4.879,0-8.871-3.953-8.871-8.828s3.905-8.828,8.784-8.828h0.086
		c4.879,0,8.828,3.953,8.828,8.828S184.829,243.863,179.949,243.863z"/>
</g>
<path style="fill:#FFDC64;" d="M133.604,370.76c-4.879,0-8.871-3.953-8.871-8.828s3.905-8.828,8.784-8.828h0.086
	c4.879,0,8.828,3.953,8.828,8.828S138.484,370.76,133.604,370.76z"/>
<path style="fill:#FBE6A5;" d="M98.665,226.574c-4.879,0-8.871-3.953-8.871-8.828s3.905-8.828,8.784-8.828h0.086
	c4.879,0,8.828,3.953,8.828,8.828S103.544,226.574,98.665,226.574z"/>
<path style="fill:#FFDC64;" d="M198.622,284.691c-4.879,0-8.871-3.953-8.871-8.828s3.905-8.828,8.784-8.828h0.086
	c4.879,0,8.828,3.953,8.828,8.828S203.501,284.691,198.622,284.691z"/>
<path style="fill:#FBE6A5;" d="M135.725,326.622c-4.879,0-8.871-3.953-8.871-8.828s3.905-8.828,8.784-8.828h0.086
	c4.879,0,8.828,3.953,8.828,8.828S140.604,326.622,135.725,326.622z"/>
<path style="fill:#FFDC64;" d="M98.294,300.139c-4.879,0-8.871-3.953-8.871-8.828s3.905-8.828,8.784-8.828h0.086
	c4.879,0,8.828,3.953,8.828,8.828S103.173,300.139,98.294,300.139z"/>
<circle style="fill:#FFCD6E;" cx="242.761" cy="233.931" r="22.07"/>
<g>
	<path style="fill:#ADDF6E;" d="M299.035,244.971c-3.819,0-7.336-2.496-8.466-6.341c-1.379-4.681,1.302-9.586,5.974-10.961
		c1.698-0.5,2.31-0.983,2.431-1.086c-0.009,0.004-0.017,0.009-0.017,0.009c-0.164,0-0.259-1.422-2.198-5.06
		c-3.897-7.302-2.474-20.556,5.293-27.345c3.655-3.207,9.233-2.845,12.457,0.828c3.207,3.672,2.836,9.246-0.836,12.457
		c-1,0.879-1.767,4.47-1.259,5.914c1.664,3.103,6.276,11.759,2.69,20.293c-1.517,3.612-5.103,8.44-13.578,10.931
		C300.691,244.854,299.854,244.971,299.035,244.971z"/>
	<path style="fill:#ADDF6E;" d="M379.604,341.023c-0.474,0-0.957-0.039-1.448-0.116c-4.81-0.793-8.06-5.336-7.267-10.147
		c0.284-1.75,0.112-2.509,0.069-2.659c0.06,0.194-0.931-0.233-3.948-0.233c-0.466,0-0.983,0.009-1.552,0.03
		c-8.302,0.328-19.603-6.711-22.345-16.638c-1.302-4.698,1.457-9.56,6.155-10.858c4.724-1.267,9.569,1.457,10.862,6.159
		c0.353,1.284,3.267,3.53,4.784,3.698c3.534-0.147,13.302-0.547,19.44,6.388c2.595,2.935,5.388,8.263,3.948,16.983
		C387.596,337.954,383.846,341.023,379.604,341.023z"/>
	<path style="fill:#ADDF6E;" d="M223.518,412.285c-3.698,0-7.147-2.345-8.379-6.047c-1.534-4.625,0.966-9.621,5.595-11.159
		c1.681-0.56,2.267-1.065,2.379-1.172c-0.034,0.052-0.207-1.216-2.379-4.966c-4.155-7.177-3.181-20.47,4.328-27.517
		c3.569-3.336,9.138-3.159,12.483,0.392c3.336,3.556,3.155,9.142-0.397,12.478c-0.974,0.914-1.612,4.534-1.052,5.961
		c1.767,3.026,6.681,11.504,3.397,20.168c-1.388,3.664-4.802,8.616-13.19,11.405C225.38,412.139,224.441,412.285,223.518,412.285z"
		/>
	<path style="fill:#ADDF6E;" d="M154.38,295.247c-3.06,0-6.034-1.595-7.672-4.44c-0.655-1.155-3.948-2.664-5.552-2.388
		c-3.345,1.013-12.724,3.832-20.405-1.353c-3.241-2.194-7.276-6.664-8.052-15.466c-0.431-4.858,3.164-9.142,8.017-9.569
		c4.974-0.397,9.138,3.159,9.569,8.017c0.155,1.763,0.509,2.457,0.586,2.591c-0.069-0.19,1.302,0.056,5.379-1.172
		c7.991-2.384,20.664,1.638,25.784,10.565c2.422,4.228,0.957,9.625-3.276,12.047C157.38,294.872,155.872,295.247,154.38,295.247z"/>
	<path style="fill:#ADDF6E;" d="M389.872,201.867c-4.448,0-8.276-3.345-8.767-7.866c-0.147-1.328-2.655-4.013-4.129-4.422
		c-3.483-0.409-13.224-1.578-18.172-9.409c-2.095-3.31-4-9.017-1.19-17.392c1.56-4.625,6.569-7.099,11.181-5.565
		c4.621,1.552,7.112,6.556,5.56,11.181c-0.569,1.677-0.517,2.453-0.5,2.608c0.009-0.168,1.121,0.569,5.405,1.082
		c8.233,0.991,18.276,9.754,19.397,19.996c0.526,4.845-2.966,9.207-7.819,9.737C390.518,201.85,390.191,201.867,389.872,201.867z"/>
	<path style="fill:#ADDF6E;" d="M232.191,112.604c-0.147,0-0.302,0-0.457-0.004c-3.448-0.108-8.534-1.504-13.138-7.534
		c-2.957-3.875-2.216-9.414,1.664-12.375c3.828-2.914,9.284-2.22,12.25,1.509c0.362-0.345,0.819-0.819,1.379-1.466
		c5.276-6.078,16.284-8.047,23.56-4.198c4.31,2.276,5.966,7.616,3.681,11.927c-2.241,4.263-7.474,5.935-11.784,3.759
		c-0.578-0.125-1.991,0.121-2.543,0.483C245.423,106.38,240.027,112.604,232.191,112.604z M249.406,104.238L249.406,104.238
		L249.406,104.238z"/>
	<path style="fill:#ADDF6E;" d="M259.777,310.122c-0.147,0-0.302,0-0.457-0.004c-3.448-0.108-8.534-1.504-13.138-7.534
		c-2.957-3.875-2.216-9.414,1.664-12.375c3.828-2.918,9.276-2.22,12.25,1.509c0.362-0.345,0.819-0.819,1.379-1.466
		c5.276-6.086,16.284-8.052,23.56-4.198c4.31,2.276,5.966,7.616,3.681,11.927c-2.241,4.267-7.483,5.94-11.784,3.759
		c-0.569-0.138-2,0.125-2.543,0.483C273.01,303.898,267.613,310.122,259.777,310.122z M276.992,301.755L276.992,301.755
		L276.992,301.755z"/>
</g>
<g>
	<path style="fill:#FBE6A5;" d="M351.725,376.643c-4.879,0-8.871-3.953-8.871-8.828s3.897-8.828,8.776-8.828h0.095
		c4.879,0,8.828,3.953,8.828,8.828S356.604,376.643,351.725,376.643z"/>
	<path style="fill:#FBE6A5;" d="M385.475,375.173c-4.879,0-8.879-3.953-8.879-8.828s3.905-8.828,8.784-8.828h0.095
		c4.879,0,8.828,3.953,8.828,8.828S390.354,375.173,385.475,375.173z"/>
	<path style="fill:#FBE6A5;" d="M399.535,303.816c-4.879,0-8.871-3.953-8.871-8.828s3.905-8.828,8.784-8.828h0.086
		c4.879,0,8.828,3.953,8.828,8.828S404.415,303.816,399.535,303.816z"/>
	<path style="fill:#FBE6A5;" d="M264.182,183.173c-4.879,0-8.871-3.953-8.871-8.828s3.905-8.828,8.784-8.828h0.086
		c4.879,0,8.828,3.953,8.828,8.828S269.061,183.173,264.182,183.173z"/>
</g>
<path style="fill:#FFDC64;" d="M343.173,207.449c-4.879,0-8.871-3.953-8.871-8.828s3.905-8.828,8.784-8.828h0.086
	c4.879,0,8.828,3.953,8.828,8.828S348.053,207.449,343.173,207.449z"/>
<g>
	<path style="fill:#FBE6A5;" d="M270.803,421.518c-4.879,0-8.871-3.953-8.871-8.828s3.905-8.828,8.784-8.828h0.086
		c4.879,0,8.828,3.953,8.828,8.828S275.682,421.518,270.803,421.518z"/>
	<path style="fill:#FBE6A5;" d="M359.725,135.359c-4.879,0-8.871-3.953-8.871-8.828s3.905-8.828,8.784-8.828h0.086
		c4.879,0,8.828,3.953,8.828,8.828C368.553,131.406,364.604,135.359,359.725,135.359z"/>
</g>
<g>
	<path style="fill:#FFDC64;" d="M293.604,102.255c-4.879,0-8.871-3.953-8.871-8.828s3.905-8.828,8.784-8.828h0.086
		c4.879,0,8.828,3.953,8.828,8.828S298.484,102.255,293.604,102.255z"/>
	<path style="fill:#FFDC64;" d="M420.785,276.6c-4.879,0-8.879-3.953-8.879-8.828s3.905-8.828,8.784-8.828h0.095
		c4.879,0,8.828,3.953,8.828,8.828S425.665,276.6,420.785,276.6z"/>
</g>
<path style="fill:#FBE6A5;" d="M411.311,242.023c-4.879,0-8.871-3.953-8.871-8.828s3.897-8.828,8.776-8.828h0.095
	c4.879,0,8.828,3.953,8.828,8.828S416.191,242.023,411.311,242.023z"/>
<path style="fill:#FFDC64;" d="M322.294,307.497c-4.879,0-8.871-3.953-8.871-8.828s3.905-8.828,8.784-8.828h0.086
	c4.879,0,8.828,3.953,8.828,8.828S327.173,307.497,322.294,307.497z"/>
<g>
	<path style="fill:#FBE6A5;" d="M303.906,281.014c-4.879,0-8.871-3.953-8.871-8.828s3.905-8.828,8.784-8.828h0.086
		c4.879,0,8.828,3.953,8.828,8.828S308.785,281.014,303.906,281.014z"/>
	<path style="fill:#FBE6A5;" d="M230.251,322.945c-4.879,0-8.871-3.953-8.871-8.828s3.905-8.828,8.784-8.828h0.086
		c4.879,0,8.828,3.953,8.828,8.828S235.13,322.945,230.251,322.945z"/>
</g>
<path style="fill:#FFDC64;" d="M316.415,416.367c-4.879,0-8.871-3.953-8.871-8.828s3.897-8.828,8.776-8.828h0.095
	c4.879,0,8.828,3.953,8.828,8.828S321.294,416.367,316.415,416.367z"/>
<path style="fill:#FFBE64;" d="M256.001,242.76c-12.189,0-22.069-9.881-22.069-22.069c0-2.627,0.538-5.111,1.38-7.448
	c-8.505,3.065-14.621,11.128-14.621,20.689c0,12.188,9.88,22.069,22.069,22.069c9.561,0,17.624-6.116,20.689-14.621
	C261.112,242.222,258.628,242.76,256.001,242.76z"/>
<circle style="fill:#FFCD6E;" cx="183.171" cy="333.241" r="17.655"/>
<path style="fill:#FFBE64;" d="M193.767,340.304c-9.751,0-17.655-7.905-17.655-17.655c0-2.102,0.43-4.089,1.104-5.958
	c-6.804,2.452-11.697,8.902-11.697,16.551c0,9.75,7.904,17.655,17.655,17.655c7.649,0,14.099-4.893,16.551-11.697
	C197.855,339.874,195.868,340.304,193.767,340.304z"/>
<circle style="fill:#FFCD6E;" cx="357.521" cy="252.141" r="17.655"/>
<path style="fill:#FFBE64;" d="M368.111,259.201c-9.751,0-17.655-7.905-17.655-17.655c0-2.102,0.43-4.089,1.104-5.958
	c-6.804,2.452-11.697,8.902-11.697,16.551c0,9.75,7.904,17.655,17.655,17.655c7.649,0,14.099-4.893,16.551-11.697
	C372.2,258.771,370.213,259.201,368.111,259.201z"/>
<circle style="fill:#FFCD6E;" cx="309.521" cy="140.691" r="17.655"/>
<path style="fill:#FFBE64;" d="M320.111,147.753c-9.751,0-17.655-7.905-17.655-17.655c0-2.102,0.43-4.089,1.104-5.958
	c-6.804,2.452-11.697,8.902-11.697,16.551c0,9.75,7.904,17.655,17.655,17.655c7.649,0,14.099-4.893,16.551-11.697
	C324.2,147.323,322.213,147.753,320.111,147.753z"/>
<circle style="fill:#FFCD6E;" cx="295.721" cy="353.101" r="22.07"/>
<path style="fill:#FFBE64;" d="M308.967,361.932c-12.189,0-22.069-9.881-22.069-22.069c0-2.627,0.538-5.111,1.38-7.448
	c-8.505,3.065-14.621,11.128-14.621,20.689c0,12.188,9.88,22.069,22.069,22.069c9.561,0,17.624-6.116,20.689-14.621
	C314.078,361.394,311.594,361.932,308.967,361.932z"/>
<path style="fill:#EEE2D4;" d="M144.279,207.459c0.492,2.07,1.223,5.216,4.154,8.439c11.758-31.464,36.864-56.321,68.491-67.741
	c-2.456-1.907-5.501-3.013-9.623-3.72c-2.115-0.363-4.157-0.863-6.203-1.107c-22.975-2.731-44.725-11.765-61.085-28.124
	L29.982,5.174C22.407-2.412,9.628-1.655,3.092,7.445C-2.043,14.592-0.513,24.61,5.71,30.832L115.049,140.17
	c16.359,16.36,25.394,38.11,28.124,61.085C143.416,203.302,143.782,205.371,144.279,207.459z"/>
<path style="fill:#E0D0BB;" d="M144.279,207.459c0.492,2.07,1.223,5.216,4.154,8.439c5.068-13.561,12.599-25.88,22.093-36.453
	c-6.557-12.58-14.781-24.27-25.019-34.509L5.425,4.854c-0.83,0.783-1.633,1.615-2.334,2.591c-5.135,7.147-3.605,17.165,2.618,23.387
	L115.048,140.17c16.359,16.36,25.394,38.11,28.124,61.085C143.416,203.302,143.782,205.371,144.279,207.459z"/>
<path style="fill:#FF915A;" d="M143.517,241.699c-0.586,0-1.181-0.056-1.776-0.181c-4.776-0.974-7.862-5.638-6.879-10.414
	c9.716-47.526,46.586-85.086,93.931-95.694c4.759-1.06,9.474,1.927,10.543,6.681c1.069,4.759-1.922,9.478-6.681,10.543
	c-40.569,9.095-72.164,41.28-80.5,82.004C151.301,238.82,147.62,241.699,143.517,241.699z"/>
<g>
</g>
<g>
</g>
<g>
</g>
<g>
</g>
<g>
</g>
<g>
</g>
<g>
</g>
<g>
</g>
<g>
</g>
<g>
</g>
<g>
</g>
<g>
</g>
<g>
</g>
<g>
</g>
<g>
</g>
</svg>
