<svg id="Capa_1" enable-background="new 0 0 502.282 502.282" height="512" viewBox="0 0 502.282 502.282" width="512" xmlns="http://www.w3.org/2000/svg"><g><path d="m265.738 114.003-24.538-25.687-2.524-48.085c-.271-5.163-4.536-9.211-9.707-9.211h-14.761c-5.17 0-9.436 4.047-9.707 9.211l-2.524 48.085-24.538 25.687-37.7 33.361v30.081h144.595v-38.285z" fill="#c9a291"/><g><ellipse cx="221.589" cy="290.318" fill="#c9a291" rx="221.589" ry="179.888"/><path d="m83.543 289.992c0-74.083 39.986-139.25 100.491-176.977-104.492 14.483-184.034 88.347-184.034 177.304 0 89.331 80.215 163.458 185.357 177.499-61.248-37.598-101.814-103.202-101.814-177.826z" fill="#be8f7d"/><path d="m443.177 290.319c0-36.38-13.316-70.231-36.188-98.535l-45.756 32.536c-11.734 8.375-14.471 24.729-6.127 36.42l5.092 7.17c1.667 2.349 3.094 4.808 4.25 7.32 2.826 6.132 4.257 12.946 4.137 19.73-.104 6.31-1.562 12.604-4.236 18.246-3.045 6.466-7.526 11.9-13.32 16.156-6.112 4.491-13.293 7.319-20.785 8.18-1.667.192-3.367.29-5.05.29-4.64.001-9.227-.725-13.661-2.165-6.404-2.069-12.299-5.635-17.102-10.362-1.807-1.766-3.487-3.734-4.992-5.85l-5.658-7.954c-4.892-6.891-12.862-11.004-21.321-11.004-5.451 0-10.681 1.668-15.141 4.835l-82.391 58.603c-11.742 8.344-14.512 24.688-6.162 36.449l5.668 7.966c18.706 26.302 43.388 47.236 71.464 61.488 115.716-5.983 207.279-84.07 207.279-179.519z" fill="#be8f7d"/><ellipse cx="221.589" cy="290.318" fill="#d3b5a8" rx="155.645" ry="179.888"/><g fill="#c9a291"><path d="m355.106 260.739 5.092 7.17c1.667 2.349 3.094 4.808 4.25 7.32 2.826 6.132 4.257 12.946 4.137 19.73-.104 6.31-1.562 12.604-4.236 18.246-3.045 6.466-7.526 11.9-13.32 16.156-6.112 4.491-13.293 7.319-20.785 8.18-1.667.192-3.367.29-5.05.29-4.64.001-9.227-.725-13.661-2.165-6.404-2.069-12.299-5.635-17.102-10.362-1.807-1.766-3.487-3.734-4.992-5.85l-5.658-7.954c-4.892-6.891-12.862-11.004-21.321-11.004-5.451 0-10.681 1.668-15.141 4.835l-82.391 58.603c-11.742 8.344-14.512 24.688-6.162 36.449l5.668 7.966c18.571 26.112 43.029 46.925 70.853 61.171 79.547-8.014 141.948-85.185 141.948-179.201 0-24.428-4.221-47.713-11.853-68.949l-4.148 2.95c-11.735 8.374-14.471 24.729-6.128 36.419z"/><path d="m175.978 118.286c-63.704 22.534-110.034 91.026-110.034 172.033 0 81.822 47.227 150.872 111.923 172.694-57.065-38.228-94.324-101.466-94.324-173.021 0-70.743 36.463-133.354 92.435-171.706z"/><ellipse cx="221.589" cy="290.318" rx="92.876" ry="179.888"/></g><path d="m233.713 468.681c37.757-9.535 68.387-62.989 77.775-133.03-6.387-2.071-12.266-5.63-17.057-10.347-1.807-1.766-3.487-3.734-4.992-5.85l-5.658-7.954c-4.892-6.891-12.862-11.004-21.321-11.004-5.451 0-10.681 1.668-15.141 4.835l-82.391 58.603c-11.742 8.344-14.512 24.688-6.162 36.449l5.668 7.966c18.22 25.619 42.106 46.113 69.279 60.332z" fill="#be8f7d"/><path d="m214.085 110.998v358.643c2.474.383 4.978.566 7.504.566s5.026-.181 7.5-.564v-358.639c-2.474-.383-4.975-.574-7.5-.574s-5.03.185-7.504.568z" fill="#d3b5a8"/><path d="m214.085 456.924c4.864 3.308 9.872 6.392 15.004 9.252v-147.878l-15.004 10.672z" fill="#c9a291"/><path d="m453.648 196.908h-19.356l-40.47 28.78s4.143 33.764 5.05 33.324 5.685 62.716 5.685 62.716l-18.105 32.97-47.5 21.045-68.519-13.625-17.559-22.51-14.922-3.07-40.48 28.79 3.8 37.409 70.475 47.142 85.19 5.714 60.997-19.523 41.428-55.713 29.999-97.909z" fill="#fbe88c"/><g><path d="m383.09 440.825c-85.495 0-155.857-39.561-164.731-90.352l-20.887 14.855 3.8 37.409 70.475 47.142 85.19 5.714 49.205-15.749c-7.535.642-15.228.981-23.052.981z" fill="#fbe372"/></g><g><path d="m469.482 191.409c22.15 31.15 32.8 67.01 32.8 102.53 0 55.4-25.91 109.96-74.5 144.52-79.73 56.71-190.34 38.04-247.05-41.7l-5.67-7.97c-1.96-2.76-1.31-6.59 1.45-8.55l20.96-14.91 9.23 12.97c46.43 65.29 137.33 80.63 202.62 34.2 65.29-46.44 80.63-137.33 34.19-202.62l-9.22-12.97 20.97-14.91c2.76-1.97 6.59-1.32 8.55 1.44z" fill="#d3b5a8"/></g></g><g id="XMLID_259_"><g><path d="m305.382 354.698c-9.19-2.97-17.77-8.04-24.93-15.09h-7.91l-14.64 12.915v9.615c10.5 10.38 23.04 17.94 36.51 22.49v-.01l7.635-2.161 7.081-21.136z" fill="#f9de58"/><path d="m370.752 345.479h-7.88c-9.24 6.79-19.7 10.71-30.33 11.93l-6.264 8.569 3.795 18.651 8.88 4.07c14.55-2.1 28.8-7.6 41.58-16.68.27-.19.54-.38.8-.58l1.758-6.226z" fill="#f9de58"/><path d="m338.952 388.699c-14.99 2.17-30.28.74-44.54-4.07v-.01l10.97-29.92c8.72 2.83 18 3.77 27.16 2.71z" fill="#fbe372"/><path d="m418.519 289.992h-25.194l-4.744 5.297c-.15 9.13-2.22 18.17-6.14 26.44l1.517 8.396 17.608 10.82 8.465-2.926c6.91-13.42 10.54-28.28 10.66-43.28z" fill="#f9de58"/><path d="m408.322 337.179c.23.09.84.39 1.71.84-6.62 12.85-16.25 24.38-28.7 33.42l-18.46-25.96c8.7-6.39 15.26-14.6 19.57-23.75z" fill="#fbe372"/><path d="m411.442 252.919c-2.35-4.91-5.14-9.68-8.4-14.26l-9.22-12.97-20.97 14.91c-2.76 1.97-3.41 5.8-1.44 8.56l5.1 7.18c2.39 3.37 4.43 6.89 6.1 10.52l4.945 4.642 24.293-10.181z" fill="#f9de58"/><path d="m411.442 252.919c6.35 13.31 9.38 27.63 9.25 41.82l-32.11.55c.17-9.63-1.79-19.36-5.97-28.43z" fill="#fbe372"/></g></g><path d="m280.452 339.609-22.55 22.53c-3.88-3.83-7.47-8.04-10.73-12.63l-9.22-12.97 20.96-14.91c2.76-1.96 6.6-1.31 8.56 1.45l5.67 7.97c2.22 3.12 4.67 5.98 7.31 8.56z" fill="#fbe372"/><g><path d="m383.09 440.825c-13.288 0-26.2-.957-38.583-2.761-51.727 6.877-105.52-14.366-137.805-59.765l-9.23-12.97-20.96 14.91c-2.76 1.96-3.41 5.79-1.45 8.55l5.67 7.97c56.71 79.74 167.32 98.41 247.05 41.7.827-.588 1.637-1.175 2.451-1.775-14.942 2.704-30.765 4.141-47.143 4.141z" fill="#c9a291"/></g></g></svg>