<svg enable-background="new 0 0 110 110" height="512" viewBox="0 0 110 110" width="512" xmlns="http://www.w3.org/2000/svg"><ellipse cx="55" cy="60.419" fill="#dd584d" rx="37.705" ry="33.892"/><path d="m90.4982834 71.8466492c-5.2043915 13.1023102-19.1246567 22.4674225-35.4993172 22.4674225-20.817215 0-37.6994171-15.1756973-37.6994171-33.8914604 0-6.8687134 2.2708626-13.2576027 6.1776409-18.5888786-1.4103794 3.5400658-2.172039 7.3623123-2.172039 11.3534508 0 18.7298851 16.8822021 33.9055824 37.7135353 33.9055824 13.144659-.0000001 24.7381115-6.0505906 31.4795971-15.2461167z" fill="#cd5248"/><path d="m57.8390083 25.715601c-1.3334198-7.2173481 2.9109726-9.0963631 2.9109726-9.0963631l-.7637253-.9333086c-5.2920227 1.3695765-7.0157433 7.204608-7.5613327 10.2211199-3.5013313.2055645-15.3948669 1.5579243-27.8896027 10.4397678 0 0 .5901833 1.1350899 8.5252914-1.9673347 7.3387222-2.8693085 8.5702248-5.1522217 14.6266594-5.6604557-2.9393806 1.3463345-6.393364 3.8389454-9.0891304 8.5118618-5.8207436 10.0895844-5.8207436 10.0895844-5.8207436 10.0895844s7.8722687-8.963623 12.0947952-12.0791283c3.6447449-2.6892242 7.847477-5.3997974 8.9314308-6.0925922-.7625237 2.8586369-1.5203934 7.7233448.0649071 12.9327259 2.4936447 8.1930084 1.847332 9.9742355 1.847332 9.9742355s3.0211601-6.4121323 2.5463295-13.8927231c-.2379341-3.7475243-.714489-6.6600475-1.1304398-8.6342697 1.6973801.950182 5.3636436 3.0385475 8.6220474 5.1375923 4.4113922 2.8417625 12.8356247 11.2885437 12.8356247 11.2885437s0 0-6.448288-9.7006645c-2.5638885-3.8570213-5.5840149-6.0700359-8.2988892-7.3557682 4.7984238.7454758 6.4193573 2.8703423 13.0971451 5.4810581 7.9351044 3.1024246 8.5252838 1.9673347 8.5252838 1.9673347-11.8701169-8.437828-23.4258611-10.2447052-27.6256673-10.631216z" fill="#4abba4"/></svg>