<?xml version="1.0" encoding="iso-8859-1"?>
<!-- Generator: Adobe Illustrator 19.0.0, SVG Export Plug-In . SVG Version: 6.00 Build 0)  -->
<svg version="1.1" id="Capa_1" xmlns="http://www.w3.org/2000/svg" xmlns:xlink="http://www.w3.org/1999/xlink" x="0px" y="0px"
	 viewBox="0 0 512 512" style="enable-background:new 0 0 512 512;" xml:space="preserve">
<path style="fill:#FD3A4E;" d="M302.934,133.166v-26.485c0-11.782,9.551-21.333,21.333-21.333s21.333,9.551,21.333,21.333v26.485
	H302.934z"/>
<path style="fill:#DE0B2B;" d="M324.267,85.347c-3.737,0-7.247,0.967-10.302,2.656c6.576,3.634,11.031,10.634,11.031,18.678v26.485
	H345.6v-26.485C345.6,94.899,336.049,85.347,324.267,85.347z"/>
<path style="fill:#FEB756;" d="M290.132,158.766v-24.57c0-3.414,2.767-6.181,6.181-6.181h55.905c3.414,0,6.181,2.767,6.181,6.181
	v24.57H290.132z"/>
<path style="fill:#FA8043;" d="M352.218,128.015h-20.604c3.414,0,6.181,2.767,6.181,6.181v24.57h20.604v-24.57
	C358.399,130.783,355.632,128.015,352.218,128.015z"/>
<path style="fill:#E4F1FB;" d="M17.066,363.565V170.683c0-9.426,7.641-17.068,17.067-17.068h390.518
	c6.464,0,12.374,3.652,15.265,9.434l54.367,108.727c0.43,0.858,0.652,1.805,0.652,2.764v89.025H17.066V363.565z"/>
<path style="fill:#C9E3F7;" d="M494.282,271.776l-54.367-108.727c-2.891-5.781-8.801-9.434-15.265-9.434h-20.604
	c6.464,0,12.374,3.652,15.265,9.434l54.367,108.727c0.43,0.858,0.653,1.805,0.653,2.764v89.025h20.604V274.54
	C494.935,273.581,494.711,272.635,494.282,271.776z"/>
<path style="fill:#FD3A4E;" d="M42.669,363.564v-33.103c0-3.414-2.767-6.181-6.181-6.181H17.065v39.285L42.669,363.564z"/>
<path style="fill:#DE0B2B;" d="M36.488,324.28H17.065v0.115c2.848,0.551,4.999,3.056,4.999,6.066v33.103h-4.999v0.001l25.604-0.002
	v-33.102C42.669,327.047,39.901,324.28,36.488,324.28z"/>
<path style="fill:#C9E3F7;" d="M331.993,153.615v204.797c0,4.267-3.459,7.726-7.726,7.726c-4.268,0-7.726-3.459-7.726-7.726V153.615
	H331.993z"/>
<path style="fill:#85828C;" d="M68.267,392.522H6.181c-3.414,0-6.181-2.767-6.181-6.181v-21.77c0-3.414,2.767-6.181,6.181-6.181
	h62.086h375.466h62.086c3.414,0,6.181,2.767,6.181,6.181v21.77c0,3.414-2.767,6.181-6.181,6.181h-62.086H68.267z"/>
<path style="fill:#FEB756;" d="M494.934,307.188h-27.952c-3.414,0-6.181,2.767-6.181,6.181v13.24c0,3.414,2.767,6.181,6.181,6.181
	h27.953L494.934,307.188z"/>
<path style="fill:#57555C;" d="M392.534,282.396h-25.599c-4.268,0-7.726,3.459-7.726,7.726c0,4.267,3.458,7.726,7.726,7.726h25.599
	c4.268,0,7.726-3.459,7.726-7.726C400.26,285.856,396.802,282.396,392.534,282.396z"/>
<rect x="474.337" y="307.19" style="fill:#FA8043;" width="20.604" height="25.602"/>
<circle style="fill:#57555C;" cx="119.47" cy="375.449" r="51.199"/>
<circle style="fill:#85828C;" cx="119.47" cy="375.449" r="25.599"/>
<path style="fill:#57555C;" d="M119.468,363.456c-4.268,0-7.726,3.459-7.726,7.726v8.534c0,4.267,3.458,7.726,7.726,7.726
	c4.268,0,7.726-3.459,7.726-7.726v-8.534C127.194,366.915,123.736,363.456,119.468,363.456z"/>
<path style="fill:#4B494F;" d="M119.467,324.254c-3.528,0-6.974,0.357-10.302,1.037c23.339,4.768,40.897,25.415,40.897,50.163
	c0,24.748-17.558,45.394-40.897,50.162c3.327,0.68,6.773,1.037,10.302,1.037c28.276,0,51.199-22.923,51.199-51.199
	C170.667,347.176,147.743,324.254,119.467,324.254z"/>
<circle style="fill:#57555C;" cx="392.53" cy="375.449" r="51.199"/>
<circle style="fill:#85828C;" cx="392.53" cy="375.449" r="25.599"/>
<path style="fill:#57555C;" d="M392.534,363.456c-4.267,0-7.726,3.459-7.726,7.726v8.534c0,4.267,3.459,7.726,7.726,7.726
	c4.268,0,7.726-3.459,7.726-7.726v-8.534C400.26,366.915,396.801,363.456,392.534,363.456z"/>
<path style="fill:#4B494F;" d="M392.533,324.254c-3.528,0-6.974,0.357-10.302,1.037c23.339,4.768,40.897,25.415,40.897,50.163
	c0,24.748-17.558,45.394-40.897,50.162c3.328,0.68,6.773,1.037,10.302,1.037c28.276,0,51.199-22.923,51.199-51.199
	C443.732,347.176,420.809,324.254,392.533,324.254z"/>
<path style="fill:#57555C;" d="M505.819,358.39h-20.604c3.414,0,6.181,2.767,6.181,6.181v21.77c0,3.414-2.767,6.181-6.181,6.181
	h20.604c3.414,0,6.181-2.767,6.181-6.181v-21.77C512,361.157,509.233,358.39,505.819,358.39z"/>
<g>
	<path style="fill:#4DBBEB;" d="M448,179.219h-15.599c-4.595,0-7.583,4.836-5.529,8.945l32.219,64.435
		c1.047,2.094,3.187,3.417,5.529,3.417h21.781L448,179.219z"/>
	<path style="fill:#4DBBEB;" d="M425.687,256.014h-47.66c-1.639,0-3.211-0.651-4.37-1.81l-21.98-21.978
		c-1.159-1.159-1.811-2.731-1.811-4.371v-42.458c0-3.414,2.767-6.181,6.181-6.181h41.002c2.443,0,4.656,1.438,5.648,3.671
		l28.637,64.436C433.152,251.411,430.16,256.014,425.687,256.014z"/>
</g>
<path style="fill:#FD3A4E;" d="M215.686,221.88h-21.771c-3.414,0-6.181-2.767-6.181-6.181v-21.77c0-3.414-2.767-6.181-6.181-6.181
	h-21.771c-3.414,0-6.181,2.767-6.181,6.181v21.77c0,3.414-2.767,6.181-6.181,6.181h-21.771c-3.414,0-6.181,2.767-6.181,6.181v21.772
	c0,3.414,2.767,6.181,6.181,6.181h21.771c3.414,0,6.181,2.767,6.181,6.181v21.771c0,3.414,2.767,6.181,6.181,6.181h21.771
	c3.414,0,6.181-2.767,6.181-6.181v-21.771c0-3.414,2.767-6.181,6.181-6.181h21.771c3.414,0,6.181-2.767,6.181-6.181v-21.772
	C221.867,224.648,219.099,221.88,215.686,221.88z"/>
<g>
	<path style="fill:#38A1D9;" d="M428.216,180.857l37.582,75.159h20.604L448,179.219h-15.599
		C430.74,179.219,429.295,179.856,428.216,180.857z"/>
	<path style="fill:#38A1D9;" d="M431.336,247.323l-28.637-64.436c-0.992-2.232-3.206-3.671-5.648-3.671h-20.604
		c2.443,0,4.656,1.438,5.648,3.671l28.637,64.436c1.816,4.088-1.175,8.692-5.648,8.692h20.604
		C430.16,256.014,433.152,251.411,431.336,247.323z"/>
</g>
<g>
</g>
<g>
</g>
<g>
</g>
<g>
</g>
<g>
</g>
<g>
</g>
<g>
</g>
<g>
</g>
<g>
</g>
<g>
</g>
<g>
</g>
<g>
</g>
<g>
</g>
<g>
</g>
<g>
</g>
</svg>
