<svg id="Capa_1" enable-background="new 0 0 512 512" height="512" viewBox="0 0 512 512" width="512" xmlns="http://www.w3.org/2000/svg"><g><g><g><path d="m309.216 512c-.65.001-1.305-.042-1.962-.128-6.015-.792-10.96-5.13-12.531-10.99l-34.739-129.648c-2.133-7.96 2.556-16.15 10.5-18.342l77.122-21.272c3.853-1.063 7.971-.544 11.44 1.442 3.469 1.985 6.002 5.274 7.037 9.136l34.891 130.214c1.57 5.86-.544 12.09-5.357 15.783-4.814 3.692-11.378 4.123-16.631 1.09l-36-20.785-20.784 36c-2.702 4.681-7.679 7.5-12.986 7.5z" fill="#a2003d"/><path d="m202.784 512c-5.307.001-10.284-2.819-12.986-7.5l-20.784-36-35.999 20.785c-5.254 3.034-11.819 2.603-16.631-1.09-4.813-3.693-6.928-9.923-5.357-15.782l34.89-130.213c1.035-3.861 3.567-7.149 7.036-9.136 3.468-1.986 7.587-2.506 11.44-1.442l77.123 21.27c7.945 2.19 12.634 10.382 10.501 18.342l-34.739 129.648c-1.57 5.86-6.516 10.198-12.531 10.99-.658.086-1.313.128-1.963.128z" fill="#d0004f"/></g><path d="m256 390c-13.741 0-24.566-8.315-33.265-14.995-4.665-3.582-9.488-7.287-12.78-8.167-3.651-.977-9.911-.168-15.964.615-11.252 1.453-24.005 3.102-35.526-3.565-11.664-6.749-16.838-19.236-20.996-29.27-2.303-5.558-4.684-11.305-7.236-13.856-2.552-2.553-8.299-4.934-13.856-7.236-10.033-4.157-22.52-9.332-29.268-20.994-6.665-11.521-5.018-24.274-3.563-35.526.782-6.054 1.591-12.314.616-15.962-.88-3.292-4.584-8.115-8.166-12.779-6.681-8.7-14.996-19.524-14.996-33.265s8.314-24.566 14.995-33.265c3.583-4.664 7.287-9.488 8.167-12.78.976-3.649.167-9.909-.615-15.962-1.454-11.253-3.102-24.006 3.565-35.528 6.748-11.663 19.236-16.838 29.27-20.995 5.557-2.303 11.304-4.685 13.856-7.236 2.552-2.552 4.933-8.299 7.236-13.855 4.158-10.033 9.332-22.521 20.996-29.268 11.522-6.667 24.275-5.019 35.526-3.563 6.054.781 12.313 1.59 15.962.616 3.291-.88 8.114-4.584 12.778-8.167 8.698-6.683 19.523-14.997 33.264-14.997s24.566 8.314 33.265 14.995c4.665 3.582 9.488 7.287 12.78 8.167 3.648.977 9.908.166 15.963-.615 11.252-1.452 24.006-3.101 35.527 3.565 11.664 6.749 16.838 19.236 20.996 29.27 2.303 5.558 4.684 11.305 7.236 13.856 2.552 2.553 8.299 4.934 13.856 7.236 10.033 4.157 22.52 9.332 29.268 20.994 6.666 11.521 5.018 24.274 3.564 35.526-.782 6.054-1.591 12.313-.616 15.962.88 3.292 4.584 8.115 8.167 12.779 6.68 8.7 14.994 19.524 14.994 33.265s-8.314 24.566-14.995 33.265c-3.583 4.664-7.287 9.488-8.168 12.78-.976 3.649-.167 9.909.615 15.962 1.454 11.253 3.102 24.006-3.565 35.528-6.748 11.663-19.236 16.838-29.27 20.995-5.557 2.303-11.304 4.685-13.857 7.236-2.552 2.552-4.933 8.299-7.236 13.855-4.158 10.033-9.332 22.521-20.996 29.268-11.521 6.666-24.275 5.019-35.526 3.564-6.054-.781-12.313-1.59-15.962-.616-3.291.88-8.114 4.584-12.778 8.167-8.696 6.681-19.521 14.996-33.262 14.996z" fill="#ff6378"/><path d="m289.264 375.005c4.664-3.583 9.487-7.287 12.778-8.167 3.649-.974 9.909-.165 15.962.616 11.25 1.455 24.004 3.103 35.526-3.564 11.664-6.748 16.838-19.235 20.996-29.268 2.303-5.557 4.684-11.304 7.236-13.855 2.552-2.552 8.299-4.934 13.857-7.236 10.034-4.157 22.522-9.332 29.27-20.995 6.667-11.522 5.019-24.275 3.565-35.528-.782-6.053-1.591-12.312-.615-15.962.88-3.292 4.585-8.116 8.168-12.78 6.679-8.7 14.993-19.525 14.993-33.266s-8.314-24.565-14.995-33.264c-3.583-4.664-7.287-9.487-8.167-12.779-.976-3.648-.167-9.908.616-15.962 1.454-11.252 3.102-24.005-3.564-35.526-6.748-11.662-19.235-16.837-29.268-20.994-5.557-2.303-11.304-4.684-13.856-7.236s-4.934-8.299-7.236-13.856c-4.157-10.033-9.332-22.521-20.996-29.27-11.521-6.666-24.274-5.018-35.527-3.565-6.055.781-12.315 1.592-15.963.615-3.293-.88-8.116-4.585-12.78-8.167-8.698-6.682-19.523-14.996-33.264-14.996v390c13.741 0 24.566-8.315 33.264-14.995z" fill="#d0004f"/><circle cx="256" cy="195" fill="#ffb454" r="120"/><path d="m376 195c0-66.274-53.726-120-120-120v240c66.274 0 120-53.726 120-120z" fill="#ff8659"/><path d="m256 330c-74.439 0-135-60.561-135-135s60.561-135 135-135 135 60.561 135 135-60.561 135-135 135zm0-240c-57.897 0-105 47.102-105 105s47.103 105 105 105 105-47.102 105-105-47.103-105-105-105z" fill="#ffe196"/><path d="m361 195c0 57.898-47.103 105-105 105v30c74.439 0 135-60.561 135-135s-60.561-135-135-135v30c57.897 0 105 47.102 105 105z" fill="#ffb454"/><g><path d="m294.989 260c-2.388 0-4.784-.569-6.978-1.723l-32.011-16.829-32.01 16.829c-5.054 2.655-11.177 2.214-15.797-1.142-4.619-3.356-6.933-9.044-5.967-14.671l6.113-35.645-25.897-25.243c-4.088-3.985-5.56-9.946-3.795-15.377 1.764-5.43 6.459-9.388 12.109-10.208l35.788-5.2 16.005-32.431c2.527-5.12 7.742-8.361 13.451-8.361 5.71 0 10.924 3.241 13.451 8.361l16.005 32.431 35.788 5.2c5.65.82 10.345 4.778 12.109 10.208 1.765 5.431.293 11.392-3.795 15.377l-25.897 25.243 6.113 35.645c.965 5.627-1.348 11.314-5.967 14.671-2.613 1.899-5.708 2.865-8.818 2.865z" fill="#ffe196"/></g></g><g><path d="m288.01 258.277c2.195 1.153 4.591 1.723 6.978 1.723 3.11 0 6.205-.966 8.818-2.864 4.619-3.356 6.933-9.044 5.967-14.671l-6.113-35.645 25.897-25.243c4.088-3.985 5.56-9.946 3.795-15.377-1.764-5.43-6.458-9.388-12.109-10.208l-35.788-5.2-16.005-32.431c-2.526-5.12-7.74-8.361-13.45-8.361v131.448z" fill="#ffb454"/></g></g></svg>