<?xml version="1.0" encoding="iso-8859-1"?>
<!-- Generator: Adobe Illustrator 19.0.0, SVG Export Plug-In . SVG Version: 6.00 Build 0)  -->
<svg version="1.1" id="Capa_1" xmlns="http://www.w3.org/2000/svg" xmlns:xlink="http://www.w3.org/1999/xlink" x="0px" y="0px"
	 viewBox="0 0 512 512" style="enable-background:new 0 0 512 512;" xml:space="preserve">
<path style="fill:#7A7780;" d="M287,0h-62c-41.421,0-75,33.579-75,75v62c0,8.284,6.716,15,15,15h30c8.284,0,15-6.716,15-15V75
	c0-8.284,6.716-15,15-15h62c8.284,0,15,6.716,15,15v62c0,8.284,6.716,15,15,15h30c8.284,0,15-6.716,15-15V75
	C362,33.579,328.421,0,287,0z"/>
<path style="fill:#57555C;" d="M287,0h-31v60h31c8.284,0,15,6.716,15,15v62c0,8.284,6.716,15,15,15h30c8.284,0,15-6.716,15-15V75
	C362,33.6,328.4,0,287,0z"/>
<path style="fill:#FD3C65;" d="M452,123.5l-30,30.6l-11.4,11.7L392,149l-30-27H150l-30,26.4l-15.901,14.099L90,149.9l-30-26.4
	C25.8,130.401,0,160.7,0,197v240c0,41.4,33.6,75,75,75h15l13.801-25.499L120,512h272l14.7-24.6L422,512h15c41.4,0,75-33.6,75-75V197
	C512,160.699,486.2,130.401,452,123.5z"/>
<path style="fill:#FD003A;" d="M512,197v240c0,41.4-33.6,75-75,75h-15l-15.3-24.6L392,512H256V122h106l30,27.001l18.6,16.8
	l11.4-11.7l30-30.601C486.2,130.401,512,160.699,512,197z"/>
<polygon style="fill:#3C3B40;" points="104.099,162.499 120,148.4 120,512 90,512 90,149.9 "/>
<polygon style="fill:#29292C;" points="410.6,165.801 422,154.1 422,512 392,512 392,149.001 "/>
<path style="fill:#E1E4FB;" d="M347,272h-45v-45c0-8.401-6.599-15-15-15h-62c-8.401,0-15,6.599-15,15v45h-45
	c-8.401,0-15,6.599-15,15v60c0,8.401,6.599,15,15,15h45v45c0,8.401,6.599,15,15,15h62c8.401,0,15-6.599,15-15v-45h45
	c8.401,0,15-6.599,15-15v-60C362,278.599,355.401,272,347,272z"/>
<path style="fill:#7A7780;" d="M75,122c-5.099,0-10.201,0.601-15,1.5V167c0,24.901,20.099,45,45,45s45-20.099,45-45v-45H75z"/>
<path style="fill:#57555C;" d="M437,122h-75v45c0,24.901,20.099,45,45,45s45-20.099,45-45v-43.5
	C447.201,122.601,442.099,122,437,122z"/>
<path style="fill:#C5C9F7;" d="M362,287v60c0,8.401-6.599,15-15,15h-45v45c0,8.401-6.599,15-15,15h-31V212h31
	c8.401,0,15,6.599,15,15v45h45C355.401,272,362,278.599,362,287z"/>
<g>
</g>
<g>
</g>
<g>
</g>
<g>
</g>
<g>
</g>
<g>
</g>
<g>
</g>
<g>
</g>
<g>
</g>
<g>
</g>
<g>
</g>
<g>
</g>
<g>
</g>
<g>
</g>
<g>
</g>
</svg>
