<?xml version="1.0" encoding="iso-8859-1"?>
<!-- Generator: Adobe Illustrator 19.0.0, SVG Export Plug-In . SVG Version: 6.00 Build 0)  -->
<svg version="1.1" id="Capa_1" xmlns="http://www.w3.org/2000/svg" xmlns:xlink="http://www.w3.org/1999/xlink" x="0px" y="0px"
	 viewBox="0 0 512 512" style="enable-background:new 0 0 512 512;" xml:space="preserve">
<path style="fill:#FEDB41;" d="M360.231,135.912L271,127.892l21.965-59.246L231.142,6.823l-36.709,6.123
	C170.19,16.974,146.87,24.709,125.102,35.9l-12.715,6.548l5.933,13.022c1.787,3.896,2.681,8.071,2.681,12.422
	c0,16.538-13.462,30-30,30c-6.65,0-12.92-2.124-18.164-6.123L61.47,83.068l-9.214,10.957C26.708,124.362,8.086,160.998,0,202.892
	l241,69.43l271,14.359L360.231,135.912z"/>
<path style="fill:#FCBF29;" d="M501.995,369.591l10.005-3.53v-79.38L0,202.892v222.451l89.726,16.641l1.377-16.582
	c1.26-15.425,14.399-27.51,29.897-27.51c16.538,0,30,13.462,30,30c0,2.9-0.41,5.771-1.23,8.496l-4.951,16.67l159.208,22.661
	L361,427.892l49.999,63.052L512,505.177v-75.454l-10.005-3.53c-6.958-2.461-12.759-7.397-16.318-13.887
	c-2.446-4.453-3.677-9.302-3.677-14.414C482,385.207,490.042,373.825,501.995,369.591z"/>
<g>
	<path style="fill:#FE9923;" d="M256,397.892c-24.814,0-45-20.186-45-45s20.186-45,45-45s45,20.186,45,45
		S280.814,397.892,256,397.892z"/>
	<path style="fill:#FE9923;" d="M361,397.892c-24.258,0-45.981,14.458-55.356,36.841c-5.528,13.193-5.685,27.294-1.617,40.986
		l106.972,15.225C417.29,481.456,421,470.109,421,457.892C421,424.801,394.091,397.892,361,397.892z"/>
	<path style="fill:#FE9923;" d="M121,277.892c-33.091,0-60-26.909-60-60s26.909-60,60-60s60,26.909,60,60
		S154.091,277.892,121,277.892z"/>
</g>
<path style="fill:#FEA832;" d="M241,127.892c0,33.091,26.909,60,60,60c22.969,0,43.579-12.788,53.789-33.384
	c2.944-5.944,4.596-12.215,5.442-18.596l-67.266-67.266c-6.376,0.85-12.64,2.509-18.582,5.457
	C253.788,84.313,241,104.923,241,127.892z"/>
<g>
</g>
<g>
</g>
<g>
</g>
<g>
</g>
<g>
</g>
<g>
</g>
<g>
</g>
<g>
</g>
<g>
</g>
<g>
</g>
<g>
</g>
<g>
</g>
<g>
</g>
<g>
</g>
<g>
</g>
</svg>
