<?xml version="1.0" encoding="iso-8859-1"?>
<!-- Generator: Adobe Illustrator 19.0.0, SVG Export Plug-In . SVG Version: 6.00 Build 0)  -->
<svg version="1.1" id="Capa_1" xmlns="http://www.w3.org/2000/svg" xmlns:xlink="http://www.w3.org/1999/xlink" x="0px" y="0px"
	 viewBox="0 0 480 480" style="enable-background:new 0 0 480 480;" xml:space="preserve">
<g>
	<g>
		<path d="M354.248,344.049H360c66.243-0.075,119.925-53.757,120-120c-0.04-30.911-25.089-55.96-56-56h-25.08
			c0.68-10.624,1.08-21.296,1.08-32c0-4.418-3.582-8-8-8H8c-4.418,0-8,3.582-8,8c-0.06,95.542,27.554,189.056,79.504,269.24
			l1.792,2.76H8c-4.418,0-8,3.582-8,8c0.026,22.08,17.92,39.974,40,40h320c22.08-0.026,39.974-17.92,40-40c0-4.418-3.582-8-8-8
			h-73.296l1.792-2.76C333.17,385.693,344.448,365.229,354.248,344.049z M397.616,184.049H424c22.08,0.026,39.974,17.92,40,40
			c-0.078,56.875-45.794,103.158-102.664,103.936c2.272-5.408,4.448-10.853,6.528-16.336c45.335-4.105,80.073-42.079,80.136-87.6
			c0-13.255-10.745-24-24-24h-28.208C396.491,194.716,397.099,189.383,397.616,184.049z M393.448,216.049H424c4.418,0,8,3.582,8,8
			c-0.046,34.362-24.337,63.917-58.04,70.616C382.597,269.037,389.115,242.744,393.448,216.049z M382.632,424.049
			c-3.403,9.582-12.464,15.988-22.632,16H40c-10.168-0.012-19.229-6.418-22.632-16H382.632z M307.056,396.601l-7.408,11.448H100.352
			l-7.408-11.448c-48.8-75.31-75.441-162.825-76.88-252.552h367.872C382.497,233.777,355.856,321.291,307.056,396.601z"/>
	</g>
</g>
<g>
	<g>
		<path d="M209.276,69.348c-1.472-1.474-3.087-2.798-4.82-3.955c-7.195-4.788-9.146-14.501-4.358-21.696
			c0.572-0.86,1.228-1.661,1.958-2.392l3.6-3.6c3.178-3.069,3.266-8.134,0.197-11.312s-8.134-3.266-11.312-0.197
			c-0.067,0.064-0.132,0.13-0.197,0.197l-3.6,3.6c-12.365,12.354-12.374,32.392-0.02,44.757c1.472,1.474,3.087,2.798,4.82,3.955
			c7.195,4.788,9.146,14.501,4.358,21.696c-0.572,0.86-1.228,1.661-1.958,2.392l-3.6,3.6c-3.178,3.069-3.266,8.134-0.197,11.312
			c3.069,3.178,8.134,3.266,11.312,0.197c0.067-0.064,0.132-0.13,0.197-0.197l3.6-3.6C221.621,101.751,221.63,81.713,209.276,69.348
			z"/>
	</g>
</g>
<g>
	<g>
		<path d="M257.276,69.348c-1.472-1.474-3.087-2.798-4.82-3.955c-7.195-4.788-9.146-14.501-4.358-21.696
			c0.572-0.86,1.228-1.661,1.958-2.392l3.6-3.6c3.178-3.07,3.266-8.134,0.196-11.312s-8.134-3.266-11.312-0.196
			c-0.067,0.064-0.132,0.13-0.196,0.196l-3.6,3.6c-12.365,12.354-12.373,32.392-0.02,44.757c1.472,1.474,3.087,2.798,4.82,3.955
			c7.195,4.788,9.146,14.501,4.358,21.696c-0.572,0.86-1.228,1.661-1.958,2.392l-3.6,3.6c-3.178,3.07-3.266,8.134-0.196,11.312
			c3.07,3.178,8.134,3.266,11.312,0.196c0.067-0.064,0.132-0.13,0.196-0.196l3.6-3.6C269.621,101.751,269.63,81.713,257.276,69.348z
			"/>
	</g>
</g>
<g>
	<g>
		<path d="M161.276,69.348c-1.472-1.474-3.087-2.798-4.82-3.955c-7.195-4.788-9.146-14.501-4.358-21.696
			c0.572-0.86,1.228-1.661,1.958-2.392l3.6-3.6c3.178-3.069,3.266-8.134,0.197-11.312s-8.134-3.266-11.312-0.197
			c-0.067,0.064-0.132,0.13-0.197,0.197l-3.6,3.6c-12.365,12.354-12.374,32.392-0.02,44.757c1.472,1.474,3.087,2.798,4.82,3.955
			c7.195,4.788,9.146,14.501,4.358,21.696c-0.572,0.86-1.228,1.661-1.958,2.392l-3.6,3.6c-3.178,3.069-3.266,8.134-0.197,11.312
			c3.069,3.178,8.134,3.266,11.312,0.197c0.067-0.064,0.132-0.13,0.197-0.197l3.6-3.6C173.621,101.751,173.63,81.713,161.276,69.348
			z"/>
	</g>
</g>
<g>
	<g>
		<path d="M77.376,301.153h0.016C68.452,278.133,61.3,254.457,56,230.337c-0.835-4.339-5.03-7.179-9.368-6.343
			c-4.339,0.835-7.179,5.03-6.343,9.368c0.026,0.134,0.055,0.267,0.087,0.399c5.466,24.926,12.848,49.394,22.08,73.184
			c1.195,3.076,4.156,5.103,7.456,5.104c4.418,0.004,8.003-3.575,8.007-7.993C77.919,303.063,77.736,302.079,77.376,301.153z"/>
	</g>
</g>
<g>
	<g>
		<path d="M95.16,341.377c-1.44-2.896-2.853-5.811-4.24-8.744c-1.801-4.034-6.532-5.845-10.567-4.043
			c-4.034,1.801-5.845,6.532-4.043,10.567c0.046,0.104,0.095,0.207,0.146,0.309c1.424,3.024,2.883,6.032,4.376,9.024
			c2.052,3.913,6.888,5.421,10.801,3.368C95.422,349.87,96.977,345.252,95.16,341.377z"/>
	</g>
</g>
<g>
</g>
<g>
</g>
<g>
</g>
<g>
</g>
<g>
</g>
<g>
</g>
<g>
</g>
<g>
</g>
<g>
</g>
<g>
</g>
<g>
</g>
<g>
</g>
<g>
</g>
<g>
</g>
<g>
</g>
</svg>
