<svg height="512" viewBox="0 0 128 128" width="512" xmlns="http://www.w3.org/2000/svg"><path d="m41.106 39.546h4.227a0 0 0 0 1 0 0v8.454a0 0 0 0 1 0 0h-4.227a4.227 4.227 0 0 1 -4.227-4.227 4.227 4.227 0 0 1 4.227-4.227z" fill="#ffbe86"/><path d="m87 39.546h4.227a0 0 0 0 1 0 0v8.454a0 0 0 0 1 0 0h-4.227a4.227 4.227 0 0 1 -4.227-4.227 4.227 4.227 0 0 1 4.227-4.227z" fill="#ffbe86" transform="matrix(-1 0 0 -1 174 87.545)"/><path d="m100.531 80.124-24.8-6.859h-22.063l-24.8 6.859a11.1 11.1 0 0 0 -7.988 8.306l-6.549 30.752h100.737l-6.549-30.752a11.1 11.1 0 0 0 -7.988-8.306z" fill="#ebf6ff"/><path d="m48.481 73.426 15.58 40.301 15.458-40.301-4.64-1.335h-21.758z" fill="#8bc9fe"/><path d="m54.661 89.413 9.339-7.277 9.387 7.277 6.132-15.987-4.64-1.335h-21.758l-4.64 1.335z" fill="#66b8fe"/><path d="m74.974 62.705h-21.091a15.212 15.212 0 0 0 -15.2 15.187v4.659a7.432 7.432 0 0 0 -6.787 6.765l-1.051 12.947c-.219 2.706-.427 5.262 1.116 6.935a4.648 4.648 0 0 0 3.582 1.37 1.75 1.75 0 0 0 0-3.5 1.615 1.615 0 0 1 -1.009-.242c-.5-.546-.335-2.617-.2-4.319l1.046-12.907a3.913 3.913 0 0 1 3.878-3.576h1.151.02.019 1.152a3.912 3.912 0 0 1 3.877 3.576l1.051 12.949c.135 1.663.3 3.732-.2 4.278a1.616 1.616 0 0 1 -1.01.242 1.75 1.75 0 0 0 0 3.5 4.648 4.648 0 0 0 3.582-1.369c1.543-1.672 1.336-4.227 1.113-6.974l-1.047-12.91a7.433 7.433 0 0 0 -6.787-6.765v-4.659a11.709 11.709 0 0 1 11.7-11.687h21.095a11.718 11.718 0 0 1 11.7 11.7v15.822a1.75 1.75 0 0 0 3.5 0v-15.818a15.221 15.221 0 0 0 -15.2-15.204z" fill="#2980ba"/><circle cx="88.429" cy="96.818" fill="#8bc9fe" r="7"/><path d="m74.879 72.091-10.879 10.045-10.879-10.045v-15.603h21.758z" fill="#ffbe86"/><path d="m44.03 19.071v25.749a19.97 19.97 0 0 0 19.97 19.97 19.97 19.97 0 0 0 19.97-19.97v-25.749z" fill="#fed3a4"/><g fill="#de9661"><circle cx="57.091" cy="39.948" r="1.75"/><circle cx="70.909" cy="39.948" r="1.75"/></g><path d="m75 8.818h-21.939a12 12 0 0 0 -12 12v15.637a3.091 3.091 0 0 0 3.091 3.091 3.09 3.09 0 0 0 3.09-3.091v-6.891a9.2 9.2 0 0 1 13.377-8.216 24.665 24.665 0 0 1 3.381 2.152v.044l.03-.022.031.022v-.044a24.6 24.6 0 0 1 3.381-2.154 9.2 9.2 0 0 1 13.376 8.216v6.891a3.091 3.091 0 1 0 6.182 0v-15.635a12 12 0 0 0 -12-12z" fill="#883f2e"/><path d="m64 82.136-5.966 4.648 3.663 4.216h2.303 2.303l3.663-4.216z" fill="#b4dafe"/><path d="m64.06 113.409 4.742-12.267-2.502-10.142h-2.3-.002-2.301l-2.502 10.142 4.743 12.267-.001.318.062-.16.062.16z" fill="#d8ecfd"/><path d="m63.905 55.866a6.943 6.943 0 0 1 -4.586-1.941 1.75 1.75 0 0 1 2.31-2.629c1.613 1.418 2.947 1.416 4.6-.012a1.75 1.75 0 1 1 2.285 2.652 7.078 7.078 0 0 1 -4.609 1.93z" fill="#de9661"/></svg>