<svg id="Capa_1" enable-background="new 0 0 512 512" height="512" viewBox="0 0 512 512" width="512" xmlns="http://www.w3.org/2000/svg"><g><g><path d="m388.935 293.444c-24.908 0-45.682 20.192-45.682 45.101v96.532c-4.941 29.885-29.186 36.226-49.193 36.226h-67.867c-20.007 0-36.226-16.219-36.226-36.226v-31.982c0-8.098 1.813-16.093 5.307-23.398l34.781-72.723-23.214-5.378-16.874 33.378c-1.006 2.103-17.514 5.463-19.498 5.724-2.548.336-5.275-.846-6.567-3.547l-14.433-30.178-26.814-4.636 32.521 77.359c3.494 7.305 5.307 15.3 5.307 23.398v34.411c0 41.142 32.289 74.494 73.431 74.494h62.575c41.142 0 74.495-33.352 74.495-74.494v-93.583c0-5.402 4.379-9.781 9.781-9.781h65.876v-40.697z" fill="#1c8ae5"/></g><path d="m186.677 340.754c2.284 0 4.568-1.201 5.716-3.603l10.771-22.522c2.237-4.678 6.962-7.656 12.148-7.656h14.741l10.796-22.573-32.788-15.681-32.728 68.432c-1.148 2.401-3.431 3.602-5.714 3.602.013.001 16.794.001 17.058.001z" fill="#1e6ee2"/><g><path d="m347.345 435.077v-96.532c0-24.908 20.192-45.101 45.101-45.101h-17.06c-24.908 0-45.101 20.192-45.101 45.101v96.532c0 20.007-16.219 36.226-36.226 36.226h17.06c20.007 0 36.226-16.219 36.226-36.226z" fill="#1e6ee2"/></g><g><path d="m166.328 437.505v-34.411c0-8.098-1.813-16.092-5.307-23.397l-30.207-63.161c-2.121-4.434 1.112-9.563 6.027-9.563h12.628l-15.12-31.614-3.176-6.64-32.789 15.681 45.576 95.296c3.494 7.305 5.307 15.3 5.307 23.398v34.411c0 41.142 33.352 74.494 74.494 74.494h17.06c-41.141.001-74.493-33.352-74.493-74.494z" fill="#1e6ee2"/></g><g><path d="m117.459 57.594-23.128-7.853v-41.207l23.128-7.853c8.185-2.779 16.678 3.307 16.678 11.95v33.012c0 8.645-8.493 14.731-16.678 11.951z" fill="#b3e59f"/></g><g><path d="m42.81 173.184 20.628 20.057 4.649-20.057-22.256-61.519c-5.24-14.484-3.073-30.614 5.803-43.201l4.069-5.771c5.726-8.121 15.043-12.951 24.979-12.951h13.648v-41.208l-17.294 2.118c-25.169 0-34.079 18.927-48.583 39.497-18.127 25.708-17.377 50.341-6.676 79.921z" fill="#e9efff"/></g><g><path d="m296.043 62.736 4.07 5.771c8.876 12.588 7.897 38.303 2.658 52.786l-13.081 51.891 7.44 14 17.837-14 15.778-43.615c10.701-29.58 6.276-62.521-11.85-88.229-12.99-18.422-33.274-30.16-55.448-32.41-2.586-.262-2.985 6.451-5.614 6.451l.185 8.993-.247 10.384 5.683 15.182c4.339.001 26.863 4.675 32.589 12.796z" fill="#e9efff"/></g><g><path d="m261.011 238.549c-2.215 6.122-20.971 11.94-27.481 11.94h-126.628c-6.51 0-12.323-4.078-14.538-10.2l-24.277-67.104h-25.277l29.405 93.791c5.367 14.837 20.011 24.721 35.788 24.721h137.8c15.778 0 29.865-9.884 35.232-24.721l33.93-93.791h-25.277z" fill="#42c3fc"/></g><g><path d="m38.883 41.34c12.99-18.422 33.275-30.151 55.448-32.402v-.404h-10.719c-25.169 0-48.768 12.235-63.272 32.805v.001c-18.127 25.708-22.552 58.651-11.851 88.231l15.778 43.614 14.942 17.337 3.602-17.337-15.778-43.614c-10.702-29.58-6.277-62.523 11.85-88.231z" fill="#d3dcfb"/></g><g><path d="m306.142 68.464-4.069-5.771c-5.726-8.121-15.043-12.951-24.979-12.951h-13.647v-40.804c-2.586-.262-5.196-.404-7.824-.404h-10.719l-19.904 20.602 19.904 20.605h13.647c9.937 0 19.253 4.83 24.979 12.951l4.069 5.771c8.876 12.588 11.042 28.718 5.803 43.201l-22.255 61.519 5.602 10.847 12.942-10.847 22.255-61.519c5.239-14.482 3.072-30.612-5.804-43.2z" fill="#d3dcfb"/></g><g><path d="m265.413 240.289 24.276-67.104h-18.543l-24.276 67.104c-2.215 6.122-8.027 10.2-14.538 10.2h18.543c6.511 0 12.323-4.079 14.538-10.2z" fill="#1aa9e8"/></g><g><path d="m76.741 266.975-33.931-93.791h-18.543l33.931 93.791c5.367 14.837 19.454 24.721 35.232 24.721h18.543c-15.778 0-29.865-9.884-35.232-24.721z" fill="#1aa9e8"/></g><g><path d="m509.254 313.793c0 25.346-18.307 46.417-42.42 50.71-2.95.525-9.649-2.394-12.751-2.394-28.448 0-31.647-19.868-31.647-48.316s2.211-49.098 30.658-49.098c3.101 0 10.789-2.137 13.74-1.612 24.113 4.293 42.42 25.363 42.42 50.71z" fill="#bac5e2"/></g><g><path d="m424.408 313.793c0-25.345 18.311-46.4 42.423-50.694-2.951-.526-5.984-.815-9.086-.815-28.448 0-51.509 23.061-51.509 51.509s23.061 51.509 51.509 51.509c3.102 0 6.135-.29 9.086-.815-24.112-4.295-42.423-25.349-42.423-50.694z" fill="#a7b4d1"/></g><g><circle cx="457.745" cy="313.793" fill="#e9efff" r="19.923"/></g><g><path d="m221.774.68 23.128 7.853v41.207l-23.128 7.853c-8.185 2.779-16.678-3.307-16.678-11.95v-33.012c0-8.644 8.493-14.73 16.678-11.951z" fill="#b3e59f"/></g></g></svg>