<svg id="Capa_1" enable-background="new 0 0 512.011 512.011" height="512" viewBox="0 0 512.011 512.011" width="512" xmlns="http://www.w3.org/2000/svg"><g><path d="m359.855 366.411-103.85 81.6-103.85-81.6c23.264-5.775 9.783-2.619 61.85-14.4l7.88-63h68.25l7.87 63c52.081 11.784 38.616 8.632 61.85 14.4z" fill="#eebeaa"/><path d="m359.855 366.411-103.85 81.6v-159h34.13l7.87 63c52.081 11.784 38.616 8.632 61.85 14.4z" fill="#eaa991"/><path d="m448.005 446.951v50.06c0 8.29-6.72 15-15 15h-354c-8.28 0-15-6.71-15-15v-50.06c0-34.55 23.42-64.48 56.94-72.8 16.151-4.003 8.944-2.216 31.21-7.74l103.85 81.6 103.85-81.6c22.266 5.524 15.059 3.737 31.21 7.74 33.521 8.32 56.94 38.25 56.94 72.8z" fill="#7bd8d3"/><path d="m448.005 446.951v50.06c0 8.29-6.72 15-15 15h-177v-64l103.85-81.6c22.266 5.524 15.059 3.737 31.21 7.74 33.521 8.32 56.94 38.25 56.94 72.8z" fill="#6cbebe"/><path d="m378.235 370.971c-.788.737 7.15-5.542-112.96 88.83-5.438 4.279-13.1 4.28-18.54 0-119.565-93.944-112.171-88.092-112.96-88.83l36.83-9.14 85.4 67.1 85.4-67.1z" fill="#6cbebe"/><path d="m378.235 370.971c-.788.737 7.15-5.542-112.96 88.83-2.72 2.14-6 3.21-9.27 3.21v-34.08l85.4-67.1z" fill="#599da5"/><path d="m368.005 463.011h-24c-8.284 0-15-6.716-15-15s6.716-15 15-15h24c8.284 0 15 6.716 15 15s-6.715 15-15 15z" fill="#599da5"/><path d="m360.005 185.011h-24c-8.284 0-15 6.716-15 15s6.716 15 15 15h24c8.284 0 15-6.716 15-15s-6.715-15-15-15z" fill="#eaa991"/><path d="m176.005 185.011h-24c-8.284 0-15 6.716-15 15s6.716 15 15 15h24c8.284 0 15-6.716 15-15s-6.715-15-15-15z" fill="#eebeaa"/><path d="m351.005 160.011v80c0 52.39-42.62 95-95 95s-95-42.61-95-95v-80c0-8.28 6.72-15 15-15 1.61-.01 41.42-.78 68.29-34.37 5.98-7.497 17.431-7.507 23.42 0 26.87 33.59 66.68 34.36 68.36 34.37 8.28 0 14.93 6.72 14.93 15z" fill="#f1cdbe"/><path d="m351.005 160.011v80c0 52.39-42.62 95-95 95v-230c4.56 0 8.87 2.07 11.71 5.63 26.87 33.59 66.68 34.36 68.36 34.37 8.28 0 14.93 6.72 14.93 15z" fill="#eebeaa"/><path d="m278.715 273.651c-13.928 6.954-30.885 7.257-45.42 0-7.41-3.7-10.41-12.71-6.71-20.12 3.71-7.41 12.72-10.42 20.13-6.71 5.717 2.848 12.683 2.938 18.58 0 7.41-3.71 16.42-.7 20.13 6.71 3.7 7.41.7 16.42-6.71 20.12z" fill="#eebeaa"/><path d="m278.715 273.651c-7.11 3.55-14.91 5.33-22.71 5.33v-29.99c3.19 0 6.38-.72 9.29-2.17 7.41-3.71 16.42-.7 20.13 6.71 3.7 7.41.7 16.42-6.71 20.12z" fill="#eaa991"/><path d="m342.975 31.071c-.41-6.59-5.09-12.14-11.52-13.66l-72-17c-2.231-.513-4.498-.552-6.9 0l-72 17c-6.43 1.52-11.11 7.07-11.52 13.66l-8 128h189.94z" fill="#7bd8d3"/><path d="m350.975 159.071h-94.97v-159.06c2.527 0-2.686-1.049 75.45 17.4 6.43 1.52 11.11 7.07 11.52 13.66z" fill="#6cbebe"/><path d="m291.005 88.011c0 8.28-6.72 15-15 15h-5v5c0 8.28-6.72 15-15 15s-15-6.72-15-15v-5h-5c-8.28 0-15-6.72-15-15s6.72-15 15-15h5v-5c0-8.28 6.72-15 15-15s15 6.72 15 15v5h5c8.28 0 15 6.72 15 15z" fill="#e9edfd"/><path d="m291.005 88.011c0 8.28-6.72 15-15 15h-5v5c0 8.28-6.72 15-15 15v-70c8.28 0 15 6.72 15 15v5h5c8.28 0 15 6.72 15 15z" fill="#d8e1fd"/></g></svg>