<svg id="Layer_2" height="512" viewBox="0 0 512 512" width="512" xmlns="http://www.w3.org/2000/svg" data-name="Layer 2"><path d="m480 128h-19.056l-21.789-43.578a8 8 0 0 0 -7.155-4.422h-8v-24a8 8 0 0 0 -8.992-7.938l-64 8a8 8 0 0 0 -7.008 7.938v16h-80a8 8 0 0 0 -6.656 3.563l-29.625 44.437h-19.719a8 8 0 0 0 -8 8v16.193c-2.667-.125-5.339-.193-8-.193a171.9 171.9 0 0 0 -123.472 52.585c-30.486 31.775-46.3 72.882-44.521 115.746 1.993 48.121 16.598 85.569 44.55 114.108a71.246 71.246 0 0 0 -11.837 9.527l-30.377 30.377a8 8 0 0 0 5.657 13.657h408a8 8 0 0 0 7.976-7.37l23.418-296.63h8.606a8 8 0 0 0 8-8v-40a8 8 0 0 0 -8-8zm-120-56.937 48-6v14.937h-48zm-91.719 24.937h158.775l16 32h-196.108zm-68.281 72.212v7.788a8 8 0 0 0 8 8h8.606l2.026 25.657c-5.15 2.258-8.844 5.569-11.985 8.4-4.647 4.179-7.719 6.943-14.647 6.943s-10-2.764-14.65-6.946c-5.475-4.925-12.285-11.054-25.35-11.054s-19.879 6.129-25.35 11.054c-4.65 4.182-7.722 6.946-14.65 6.946s-10-2.764-14.647-6.946c-3.087-2.778-6.6-5.938-11.422-8.167a155.939 155.939 0 0 1 106.069-41.887c2.662 0 5.335.074 8 .212zm-26.11 188.171c-1.524 1.318-2.978 2.646-4.366 3.969-12.73-9.669-21.524-25.777-21.524-40.352a47.989 47.989 0 0 1 76.282-38.772l4.194 53.128c-18.739-.311-37.425 7.188-54.586 22.027zm-133.9-36.714c-1.46-35.238 10.369-69.185 33.455-96.621 5.931.366 8.89 3.02 13.2 6.9 5.474 4.923 12.284 11.052 25.355 11.052s19.879-6.129 25.351-11.054c4.649-4.182 7.715-6.946 14.649-6.946s10 2.764 14.649 6.946c5.468 4.925 12.278 11.054 25.351 11.054s19.88-6.129 25.352-11.053c.949-.854 1.833-1.649 2.7-2.374l2.708 34.295a63.985 63.985 0 0 0 -90.76 58.132c0 19.11 10.6 39.365 26.593 52.116-2.84 3.446-4.993 6.4-6.4 8.444-16.276 4.19-29.562 11.248-39.669 21.169a59.761 59.761 0 0 0 -14.477 21.841 72.8 72.8 0 0 0 -14.247 3.423c-27.914-26.311-41.869-60.558-43.807-107.324zm28.044 135.611a56.288 56.288 0 0 1 53.18-14.731l28.846 7.212 3.881-15.521-28.846-7.212a71 71 0 0 0 -9.364-1.682c6.752-11.832 25.574-31.346 76.269-31.346h24v-16h-24c-5.6 0-10.963.243-16.13.677 11.473-12.29 30.467-27.378 53.873-26.277l9.6 121.6h-188.03zm364.572 16.72h-177.212l-22.738-288h222.688zm39.394-304h-256v-24h256z"/><path d="m348 368a60 60 0 1 0 -60-60 60.068 60.068 0 0 0 60 60zm0-104a44 44 0 1 1 -44 44 44.05 44.05 0 0 1 44-44z"/><path d="m96 352h16v16h-16z"/><path d="m56 328h16v16h-16z"/><path d="m56 288h16v16h-16z"/><path d="m104 264h16v16h-16z"/><path d="m96 312h16v16h-16z"/><path d="m352 440h24v16h-24z"/><path d="m384 440h24v16h-24z"/></svg>