<svg width="10" height="10" viewBox="0 0 10 10" fill="none" xmlns="http://www.w3.org/2000/svg">
<path d="M4.04894 0.927049C4.3483 0.0057385 5.6517 0.00573921 5.95106 0.92705L6.34708 2.1459C6.48096 2.55792 6.86491 2.83688 7.29814 2.83688H8.57971C9.54844 2.83688 9.95121 4.0765 9.1675 4.6459L8.13068 5.39919C7.7802 5.65383 7.63354 6.1052 7.76741 6.51722L8.16344 7.73607C8.46279 8.65738 7.40831 9.4235 6.6246 8.8541L5.58778 8.10081C5.2373 7.84617 4.7627 7.84617 4.41221 8.10081L3.3754 8.8541C2.59169 9.4235 1.53721 8.65738 1.83656 7.73607L2.23259 6.51722C2.36646 6.1052 2.2198 5.65383 1.86932 5.39919L0.832501 4.6459C0.0487874 4.0765 0.451563 2.83688 1.42029 2.83688H2.70186C3.13509 2.83688 3.51904 2.55792 3.65292 2.1459L4.04894 0.927049Z" fill="#33BFC8"/>
</svg>
