<svg height="512pt" viewBox="0 -3 512 512" width="512pt" xmlns="http://www.w3.org/2000/svg"><path d="m294.671875 63.957031c32.839844 5.085938 63.300781 16.640625 88.089844 33.410157 23.972656 16.21875 41.597656 36.539062 50.972656 58.769531 1.609375 3.824219 5.316406 6.121093 9.21875 6.121093 1.296875 0 2.613281-.253906 3.882813-.789062 5.089843-2.148438 7.472656-8.011719 5.328124-13.101562-10.882812-25.808594-31.007812-49.171876-58.195312-67.566407-27.21875-18.414062-60.496094-31.074219-96.238281-36.609375-5.449219-.84375-10.566407 2.894532-11.410157 8.355469-.847656 5.453125 2.890626 10.5625 8.351563 11.410156zm0 0"/><path d="m100.351562 138.972656c1.582032 3.796875 5.609376 6.355469 9.71875 6.160156 4.058594-.195312 7.785157-3.066406 9.019532-6.9375 1.25-3.917968-.148438-8.492187-3.429688-10.988281-3.394531-2.578125-8.382812-2.671875-11.867187-.210937-3.707031 2.617187-5.15625 7.792968-3.441407 11.976562zm0 0"/><path d="m148.53125 101.734375c1.597656 3.839844 5.695312 6.425781 9.855469 6.160156 4.011719-.261719 7.660156-3.121093 8.890625-6.945312 1.253906-3.890625-.152344-8.421875-3.378906-10.929688-3.410157-2.644531-8.484376-2.753906-11.984376-.21875-3.640624 2.636719-5.117187 7.773438-3.382812 11.933594zm0 0"/><path d="m200.289062 138.972656c1.582032 3.796875 5.613282 6.355469 9.722657 6.160156 4.058593-.195312 7.792969-3.066406 9.027343-6.9375 1.25-3.921874-.15625-8.496093-3.441406-10.988281-3.394531-2.578125-8.378906-2.671875-11.867187-.210937-3.703125 2.617187-5.15625 7.792968-3.441407 11.976562zm0 0"/><path d="m512 316.9375c0-22.019531-14.148438-40.785156-33.824219-47.71875v-25.023438c3.164063-1.167968 6.210938-2.707031 9.074219-4.628906 11.386719-7.652344 17.917969-19.730468 17.917969-33.148437 0-8.390625-2.59375-16.332031-7.414063-23.011719 2.4375-5.777344 3.171875-12.191406 1.988282-18.511719-8.5625-45.796875-37.96875-87.71875-82.800782-118.050781-44.652344-30.207031-101.808594-46.84375-160.941406-46.84375s-116.289062 16.636719-160.941406 46.84375c-44.832032 30.328125-74.238282 72.253906-82.800782 118.050781-1.484374 7.925781.042969 15.996094 4.175782 22.773438-3.113282 5.710937-4.734375 12.070312-4.734375 18.75 0 13.417969 6.53125 25.503906 17.921875 33.152343 1.359375.914063 2.769531 1.730469 4.203125 2.476563v27.171875c-19.675781 6.933594-33.824219 25.699219-33.824219 47.71875v2.03125c0 14.585938 6.214844 27.742188 16.125 36.984375-2.890625 5.5625-4.425781 11.75-4.425781 18.121094 0 10.011719 3.640625 19.273437 10.214843 26.511719v36.085937c0 38.550781 31.363282 69.917969 69.917969 69.917969h328.335938c38.554687 0 69.917969-31.367188 69.917969-69.917969v-31.550781c9.621093-7.667969 15.082031-18.796875 15.082031-31.050782 0-7.683593-2.164063-14.957031-6.207031-21.246093 8.097656-8.96875 13.039062-20.84375 13.039062-33.855469zm-20 0v2.03125c0 10.324219-5.148438 19.464844-13.007812 25.007812-5.121094 3.609376-11.3125 5.578126-17.578126 5.578126h-155.066406l63.769532-63.203126h91.292968c16.867188 0 30.589844 13.722657 30.589844 30.585938zm-340.433594-30.585938 1.585938 1.589844 10.257812 10.253906-21.472656 21.476563-33.320312-33.320313zm94.417969 66.132813-61.351563-61.347656c0-.003907-.003906-.007813-.007812-.011719l-4.773438-4.773438h161.8125l-66.832031 66.09375c-.003906.003907-.007812.007813-.011719.015626-.007812.007812-.019531.015624-.027343.023437l-14.40625 14.40625zm-214.070313-183.917969c7.574219-40.5 33.980469-77.847656 74.351563-105.160156 41.378906-27.992188 94.554687-43.40625 149.734375-43.40625s108.355469 15.414062 149.734375 43.40625c40.371094 27.3125 66.773437 64.660156 74.351563 105.160156 1.402343 7.511719-4.597657 14.6875-12.222657 14.6875h-423.726562c-7.636719 0-13.625-7.175781-12.222657-14.6875zm.523438 32.511719c3.714844 1.4375 7.71875 2.175781 11.699219 2.175781h423.726562c5.519531 0 11.070313-1.429687 15.882813-4.136718.941406 2.3125 1.421875 4.800781 1.421875 7.296874 0 6.644532-3.304688 12.675782-9.070313 16.546876-5.894531 3.960937-13.402344 4.910156-20.144531 2.777343-3.332031-1.054687-6.476563-2.414062-9.914063-3.148437-3.71875-.796875-7.523437-1.148438-11.324218-1.148438-17.863282 0-27.449219 6.765625-35.148438 12.199219-6.757812 4.773437-12.09375 8.542969-23.609375 8.542969s-16.851562-3.769532-23.609375-8.539063c-7.699218-5.441406-17.28125-12.203125-35.148437-12.203125-17.863281 0-27.445313 6.765625-35.144531 12.203125-6.757813 4.769531-12.09375 8.539063-23.609376 8.539063-11.515624 0-16.855468-3.769532-23.613281-8.542969-7.699219-5.4375-17.28125-12.199219-35.144531-12.199219s-27.449219 6.765625-35.148438 12.199219c-6.757812 4.773437-12.097656 8.542969-23.609374 8.542969-11.519532 0-16.855469-3.769532-23.617188-8.542969-7.699219-5.4375-17.28125-12.199219-35.148438-12.199219-7.066406 0-13.4375 1.199219-19.480468 3.664063-7.136719 2.914062-15.488282 2.175781-21.910156-2.140625-5.765626-3.871094-9.070313-9.902344-9.070313-16.546875-.003906-1.839844.246094-3.628907.734375-5.339844zm23.375 45.738281c5.246094-.253906 10.167969-1.578125 15.050781-3.4375 4.871094-1.859375 10.183594-2.226562 15.34375-1.765625 8.828125.785157 13.65625 4.195313 19.570313 8.367188 7.699218 5.4375 17.28125 12.203125 35.148437 12.203125 17.863281 0 27.445313-6.765625 35.144531-12.203125 6.757813-4.769531 12.097657-8.539063 23.613282-8.539063s16.851562 3.769532 23.609375 8.539063c7.699219 5.4375 17.285156 12.203125 35.148437 12.203125 17.863282 0 27.445313-6.765625 35.144532-12.203125 6.757812-4.769531 12.097656-8.539063 23.609374-8.539063 11.515626 0 16.855469 3.769532 23.613282 8.539063 7.699218 5.4375 17.28125 12.203125 35.144531 12.203125s27.445313-6.765625 35.144531-12.203125c6.761719-4.769531 12.097656-8.539063 23.613282-8.539063 4.085937 0 8.097656.679688 11.90625 2.175782 3.714843 1.460937 7.582031 2.511718 11.554687 2.976562v19.761719h-92.167969c-.003906 0-.003906 0-.007812 0h-.003906-210.253907c-.007812 0-.019531 0-.027343 0-.011719 0-.023438 0-.03125 0h-101.855469v-19.484375c.664062-.003906 1.324219-.023438 1.988281-.054688zm-35.8125 70.121094c0-16.863281 13.722656-30.585938 30.585938-30.585938h29.75l54.53125 54.535157c1.875 1.875 4.417968 2.925781 7.070312 2.925781s5.195312-1.050781 7.070312-2.925781l28.546876-28.546875 37.214843 37.214844h-164.183593c-5.285157 0-10.539063-1.398438-15.125-4.019532-9.226563-5.269531-15.460938-15.199218-15.460938-26.566406zm13.351562 49.589844c5.503907 1.996094 11.378907 3.027344 17.234376 3.027344h184.183593l18.546875 18.546874c3.835938 3.839844 10.261719 3.847657 14.109375.03125l18.746094-18.578124h175.238281c5.640625 0 11.273438-.957032 16.601563-2.800782 1.117187-.386718 2.257812-.777344 3.308593-1.316406.339844-.175781.832032-.566406 1.234376-.539062.554687.039062.699218.746093.898437 1.191406 1.082031 2.386718 1.660156 5 1.707031 7.621094.167969 9.433593-6.625 17.328124-15.496094 19.898437-5.082031 1.476563-10.585937 1.148437-15.484374-.851563-6.03125-2.464843-12.402344-3.664062-19.46875-3.664062-17.863282 0-27.445313 6.765625-35.144532 12.203125-6.761718 4.773437-12.097656 8.542969-23.613281 8.542969-11.511719 0-16.851563-3.769532-23.609375-8.542969-7.699219-5.4375-17.28125-12.203125-35.144531-12.203125s-27.445313 6.765625-35.148438 12.203125c-6.757812 4.773437-12.09375 8.542969-23.609375 8.542969s-16.851562-3.769532-23.613281-8.542969c-7.699219-5.4375-17.28125-12.203125-35.144531-12.203125-17.863282 0-27.445313 6.765625-35.148438 12.203125-6.757812 4.773437-12.09375 8.542969-23.609375 8.542969-11.519531 0-16.855469-3.773438-23.613281-8.542969-7.703125-5.4375-17.285156-12.203125-35.152344-12.203125-7.066406 0-13.4375 1.199219-19.476562 3.667969-6.527344 2.664062-14.136719 2.3125-20.296875-1.15625-5.449219-3.066407-9.507813-8.324219-10.460938-14.570313-.285156-1.847656-.300781-3.738281-.054687-5.59375.070312-.539062.988281-5.09375 1.480468-4.914062zm436.734376 70.144531c0 27.523437-22.394532 49.917969-49.917969 49.917969h-328.335938c-27.523437 0-49.917969-22.394532-49.917969-49.917969v-23.71875c8.210938 2.328125 17.074219 2.164063 25.519532-.644531.171875-.058594.34375-.117188.511718-.171875.769532-.269531 1.539063-.546875 2.296876-.859375 3.59375-1.46875 7.492187-2.179688 11.917968-2.179688 11.519532 0 16.855469 3.765625 23.613282 8.539063 7.703124 5.4375 17.285156 12.203125 35.152343 12.203125 17.863281 0 27.445313-6.765625 35.144531-12.203125 6.757813-4.773438 12.097657-8.539063 23.609376-8.539063 11.515624 0 16.855468 3.765625 23.613281 8.539063 7.699219 5.4375 17.28125 12.203125 35.148437 12.203125 17.863282 0 27.445313-6.765625 35.144532-12.203125 6.757812-4.773438 12.097656-8.539063 23.609374-8.539063 11.515626 0 16.855469 3.765625 23.609376 8.539063 7.699218 5.4375 17.285156 12.203125 35.148437 12.203125s27.445313-6.765625 35.144531-12.203125c6.757813-4.773438 12.097656-8.539063 23.613282-8.539063 2.980468 0 5.96875.332032 8.847656 1.132813 2.738281.761719 5.324218 1.964843 8.0625 2.738281 5.945312 1.675781 12.363281 2.03125 18.460937 1.039062v22.664063zm0 0"/><path d="m225.910156 101.734375c1.582032 3.796875 5.613282 6.375 9.726563 6.164063 4.058593-.207032 7.78125-3.066407 9.019531-6.933594 1.257812-3.921875-.152344-8.488282-3.429688-10.992188-3.386718-2.589844-8.382812-2.6875-11.863281-.214844-3.691406 2.617188-5.199219 7.792969-3.453125 11.976563zm0 0"/><path d="m271.019531 145.8125c1.582031 3.800781 5.609375 6.355469 9.71875 6.160156 4.0625-.195312 7.777344-3.070312 9.023438-6.933594 1.261719-3.917968-.152344-8.496093-3.433594-10.992187-3.394531-2.582031-8.382813-2.667969-11.867187-.210937-3.703126 2.617187-5.15625 7.792968-3.441407 11.976562zm0 0"/><path d="m245.488281 56.023438c3.558594 2.371093 8.5625 2.136718 11.871094-.574219 3.234375-2.648438 4.527344-7.339844 3.035156-11.253907-1.453125-3.800781-5.304687-6.507812-9.386719-6.488281-4.039062.023438-7.878906 2.675781-9.308593 6.457031-1.597657 4.234376.035156 9.335938 3.789062 11.859376zm0 0"/></svg>