<?xml version="1.0" encoding="iso-8859-1"?>
<!-- Generator: Adobe Illustrator 19.0.0, SVG Export Plug-In . SVG Version: 6.00 Build 0)  -->
<svg version="1.1" id="Layer_1" xmlns="http://www.w3.org/2000/svg" xmlns:xlink="http://www.w3.org/1999/xlink" x="0px" y="0px"
	 viewBox="0 0 512 512" style="enable-background:new 0 0 512 512;" xml:space="preserve">
<path style="fill:#FF9911;" d="M477.935,344.072h-0.046c0.002-7.343-1-14.688-3.099-21.946c0,0-0.057-0.058-0.057-0.117
	c-1.51-5.168-3.543-10.333-6.154-15.445c-0.058-0.117-0.117-0.175-0.175-0.289c-10.392-20.264-29.378-39.308-56.957-55.217
	c-88.602-51.209-233.639-51.209-322.298,0c-27.579,15.966-46.565,35.01-56.959,55.273c-0.058,0.058-0.117,0.174-0.117,0.233
	c-2.497,4.937-4.529,9.927-5.98,14.922c-2.234,7.465-3.328,15.025-3.334,22.584h-0.008v0.215c0,0.19-0.002,0.38,0,0.57v34.721h0.008
	c-0.022,33.715,22.092,67.452,66.387,93.015c88.66,51.209,233.696,51.209,322.298,0c44.338-25.556,66.435-59.292,66.443-93.015
	h0.046v-35.506H477.935z"/>
<path style="fill:#FFA834;" d="M411.453,437.087c-88.602,51.21-233.639,51.21-322.298,0c-54.229-31.295-75.248-74.84-63.055-115.6
	c1.452-4.994,3.484-9.987,5.981-14.921c0-0.058,0.058-0.174,0.117-0.233c10.393-20.263,29.38-39.307,56.959-55.274
	c88.659-51.21,233.696-51.21,322.298,0c27.579,15.909,46.565,34.953,56.957,55.216c0.058,0.117,0.117,0.175,0.174,0.29
	c2.614,5.109,4.645,10.276,6.154,15.444c0,0.058,0.058,0.116,0.058,0.116C486.527,362.71,465.45,405.966,411.453,437.087z"/>
<path style="fill:#40A559;" d="M394.613,409.563c-79.341,45.857-209.217,45.857-288.608,0
	C57.444,381.54,38.622,342.546,49.54,306.047c1.3-4.471,3.119-8.943,5.355-13.362c0-0.052,0.052-0.156,0.104-0.208
	c9.306-18.145,26.308-35.199,51.005-49.497c79.392-45.857,209.268-45.857,288.608,0c24.696,14.246,41.697,31.3,51.004,49.445
	c0.053,0.104,0.104,0.156,0.156,0.26c2.34,4.576,4.16,9.202,5.511,13.83c0,0.052,0.052,0.103,0.052,0.103
	C461.838,342.962,442.966,381.696,394.613,409.563z"/>
<path style="fill:#CD2A01;" d="M250.338,347.528h-0.021c0.001-3.408-0.464-6.816-1.438-10.184c0,0-0.026-0.027-0.026-0.054
	c-0.7-2.398-1.645-4.795-2.856-7.167c-0.027-0.054-0.054-0.081-0.081-0.134c-4.822-9.404-13.633-18.242-26.432-25.624
	c-41.117-23.764-108.422-23.764-149.567,0c-12.798,7.41-21.609,16.247-26.432,25.65c-0.027,0.027-0.054,0.081-0.054,0.108
	c-1.158,2.291-2.101,4.607-2.775,6.925c-1.037,3.464-1.545,6.973-1.547,10.48h-0.004v0.1c0,0.088-0.001,0.176,0,0.265v25.446h0.004
	c-0.01,15.646,10.252,31.302,30.808,43.164c41.144,23.764,108.45,23.764,149.567,0c20.576-11.859,30.83-27.515,30.834-43.164h0.021
	L250.338,347.528L250.338,347.528z"/>
<path style="fill:#FF3502;" d="M219.487,390.692c-41.117,23.764-108.422,23.764-149.566,0
	c-25.166-14.523-34.92-34.731-29.261-53.646c0.673-2.317,1.616-4.635,2.775-6.925c0-0.027,0.027-0.081,0.054-0.108
	c4.823-9.403,13.634-18.241,26.432-25.65c41.143-23.764,108.45-23.764,149.566,0c12.798,7.383,21.609,16.22,26.432,25.624
	c0.027,0.054,0.054,0.081,0.081,0.135c1.213,2.371,2.156,4.769,2.856,7.167c0,0.027,0.027,0.054,0.027,0.054
	C254.325,356.177,244.545,376.25,219.487,390.692z"/>
<path style="fill:#CD2A01;" d="M461.574,347.528h-0.021c0.001-3.408-0.464-6.816-1.438-10.184c0,0-0.026-0.027-0.026-0.054
	c-0.701-2.398-1.645-4.795-2.856-7.167c-0.027-0.054-0.054-0.081-0.081-0.134c-4.822-9.404-13.633-18.242-26.432-25.624
	c-41.117-23.764-108.422-23.764-149.567,0c-12.798,7.41-21.609,16.247-26.432,25.65c-0.027,0.027-0.054,0.081-0.054,0.108
	c-1.158,2.291-2.101,4.607-2.775,6.925c-1.037,3.464-1.545,6.973-1.547,10.48h-0.004v0.1c0,0.088-0.001,0.176,0,0.265v25.446h0.004
	c-0.01,15.646,10.252,31.302,30.808,43.164c41.144,23.764,108.45,23.764,149.567,0c20.576-11.859,30.83-27.515,30.834-43.164h0.021
	L461.574,347.528L461.574,347.528z"/>
<path style="fill:#FF3502;" d="M430.722,390.692c-41.117,23.764-108.422,23.764-149.566,0
	c-25.166-14.523-34.92-34.731-29.261-53.646c0.673-2.317,1.616-4.635,2.775-6.925c0-0.027,0.027-0.081,0.054-0.108
	c4.823-9.403,13.634-18.241,26.432-25.65c41.143-23.764,108.45-23.764,149.566,0c12.798,7.383,21.609,16.22,26.432,25.624
	c0.027,0.054,0.054,0.081,0.081,0.135c1.213,2.371,2.156,4.769,2.856,7.167c0,0.027,0.027,0.054,0.027,0.054
	C465.561,356.177,455.78,376.25,430.722,390.692z"/>
<path style="fill:#884D01;" d="M466.935,287.458l-0.044-23.403c0.002-6.988-0.951-13.978-2.949-20.885c0,0-0.054-0.056-0.054-0.111
	c-1.436-4.918-3.372-9.834-5.857-14.699c-0.056-0.111-0.111-0.167-0.167-0.275c-9.89-19.285-27.958-37.409-54.204-52.548
	c-84.32-48.735-222.347-48.735-306.723,0c-26.246,15.195-44.314,33.318-54.205,52.603c-0.055,0.055-0.111,0.165-0.111,0.222
	c-2.376,4.697-4.309,9.448-5.69,14.202c-2.126,7.104-3.167,14.299-3.172,21.492H33.75v0.205c0,0.181-0.001,0.361,0,0.543v29.712
	h0.008c-0.021,32.085,21.024,64.192,63.179,88.52c84.375,48.735,222.402,48.735,306.723,0c42.195-24.32,63.224-56.427,63.232-88.52
	h0.044L466.935,287.458L466.935,287.458z"/>
<path style="fill:#A66206;" d="M403.668,352.575c-84.32,48.735-222.348,48.735-306.722,0
	c-51.609-29.782-71.611-71.223-60.008-110.013c1.381-4.752,3.315-9.504,5.691-14.2c0-0.056,0.055-0.165,0.111-0.222
	c9.891-19.283,27.96-37.408,54.206-52.603c84.374-48.735,222.402-48.735,306.722,0c26.246,15.14,44.314,33.264,54.204,52.547
	c0.056,0.111,0.111,0.165,0.165,0.277c2.487,4.862,4.421,9.78,5.857,14.698c0,0.055,0.055,0.11,0.055,0.11
	C475.112,281.793,455.055,322.959,403.668,352.575z"/>
<polyline style="fill:#FED322;" points="512,264.052 255.17,115.771 0,264.06 256.83,412.34 512,264.052 "/>
<path style="fill:#FF9911;" d="M477.942,228.6c0,0.723,0,1.447-0.01,2.169c-0.757,33.004-22.781,65.854-66.129,91.047
	c-88.591,51.49-232.695,51.49-321.867,0c-44.071-25.443-66.49-58.7-67.181-92.066c-0.01-0.384-0.01-0.767-0.01-1.15
	c0-0.723,0-1.447,0.01-2.17C23.916,101.733,125.371,1,250.343,1c125.311,0,226.974,101.28,227.588,226.449
	C477.942,227.833,477.942,228.217,477.942,228.6z"/>
<g>
	<ellipse style="fill:#FEDAAA;" cx="260.77" cy="53.669" rx="4.775" ry="12.736"/>
	
		<ellipse transform="matrix(0.9419 -0.336 0.336 0.9419 6.8427 82.0377)" style="fill:#FEDAAA;" cx="240.493" cy="21.245" rx="12.736" ry="4.776"/>
	
		<ellipse transform="matrix(0.7838 -0.621 0.621 0.7838 37.804 190.4368)" style="fill:#FEDAAA;" cx="292.412" cy="40.923" rx="12.736" ry="4.775"/>
	
		<ellipse transform="matrix(-0.9477 -0.3193 0.3193 -0.9477 478.9569 259.875)" style="fill:#FEDAAA;" cx="260.78" cy="90.679" rx="12.736" ry="4.776"/>
	
		<ellipse transform="matrix(-0.9786 -0.2058 0.2058 -0.9786 425.4185 342.6603)" style="fill:#FEDAAA;" cx="230.53" cy="149.206" rx="12.736" ry="4.775"/>
	
		<ellipse transform="matrix(-0.8148 0.5798 -0.5798 -0.8148 676.8234 25.5664)" style="fill:#FEDAAA;" cx="334.328" cy="120.898" rx="12.736" ry="4.776"/>
	
		<ellipse transform="matrix(-0.7071 -0.7071 0.7071 -0.7071 374.4219 418.5987)" style="fill:#FEDAAA;" cx="273.906" cy="131.754" rx="12.736" ry="4.775"/>
	
		<ellipse transform="matrix(-0.7071 -0.7071 0.7071 -0.7071 541.7875 306.3013)" style="fill:#FEDAAA;" cx="334.331" cy="40.943" rx="12.736" ry="4.775"/>
	
		<ellipse transform="matrix(0.742 -0.6704 0.6704 0.742 -20.7956 169.5133)" style="fill:#FEDAAA;" cx="209.838" cy="111.775" rx="12.736" ry="4.775"/>
	
		<ellipse transform="matrix(-0.7071 -0.7071 0.7071 -0.7071 448.6565 358.3343)" style="fill:#FEDAAA;" cx="298.542" cy="86.247" rx="12.736" ry="4.775"/>
	
		<ellipse transform="matrix(-0.7071 -0.7071 0.7071 -0.7071 194.0463 310.2922)" style="fill:#FEDAAA;" cx="161.287" cy="114.958" rx="12.736" ry="4.775"/>
	
		<ellipse transform="matrix(-0.4337 -0.901 0.901 -0.4337 422.3272 407.8631)" style="fill:#FEDAAA;" cx="339.328" cy="71.222" rx="12.735" ry="4.775"/>
	
		<ellipse transform="matrix(0.5455 -0.8381 0.8381 0.5455 48.4849 214.8054)" style="fill:#FEDAAA;" cx="222.297" cy="62.699" rx="12.736" ry="4.775"/>
	
		<ellipse transform="matrix(0.999 -0.0445 0.0445 0.999 -2.9886 8.1793)" style="fill:#FEDAAA;" cx="182.218" cy="71.214" rx="12.736" ry="4.775"/>
	
		<ellipse transform="matrix(0.8376 -0.5463 0.5463 0.8376 6.1792 105.7435)" style="fill:#FEDAAA;" cx="180.936" cy="42.479" rx="12.736" ry="4.775"/>
</g>
<g>
</g>
<g>
</g>
<g>
</g>
<g>
</g>
<g>
</g>
<g>
</g>
<g>
</g>
<g>
</g>
<g>
</g>
<g>
</g>
<g>
</g>
<g>
</g>
<g>
</g>
<g>
</g>
<g>
</g>
</svg>
