<?xml version="1.0" encoding="iso-8859-1"?>
<!-- Generator: Adobe Illustrator 19.0.0, SVG Export Plug-In . SVG Version: 6.00 Build 0)  -->
<svg version="1.1" id="Capa_1" xmlns="http://www.w3.org/2000/svg" xmlns:xlink="http://www.w3.org/1999/xlink" x="0px" y="0px"
	 viewBox="0 0 512 512" style="enable-background:new 0 0 512 512;" xml:space="preserve">
<g>
	<g>
		<g>
			<path d="M437.004,74.819C388.654,26.571,324.372,0,256,0S123.346,26.571,74.996,74.819C26.634,123.079,0,187.246,0,255.501v0.998
				c0,68.255,26.634,132.422,74.996,180.682C123.346,485.429,187.628,512,256,512s132.654-26.571,181.004-74.819
				C485.366,388.921,512,324.754,512,256.499v-0.998C512,187.246,485.366,123.079,437.004,74.819z M472,256.499
				C472,375.327,375.103,472,256,472S40,375.327,40,256.499v-0.998C40,136.673,136.897,40,256,40s216,96.673,216,215.501V256.499z"
				/>
			<path d="M256,130c-68.925,0-125,56.075-125,125s56.075,125,125,125s125-56.075,125-125S324.925,130,256,130z M256,340
				c-46.869,0-85-38.131-85-85s38.131-85,85-85s85,38.131,85,85C341,301.869,302.869,340,256,340z"/>
		</g>
	</g>
</g>
<g>
</g>
<g>
</g>
<g>
</g>
<g>
</g>
<g>
</g>
<g>
</g>
<g>
</g>
<g>
</g>
<g>
</g>
<g>
</g>
<g>
</g>
<g>
</g>
<g>
</g>
<g>
</g>
<g>
</g>
</svg>
