<?xml version="1.0" encoding="iso-8859-1"?>
<!-- Generator: Adobe Illustrator 19.0.0, SVG Export Plug-In . SVG Version: 6.00 Build 0)  -->
<svg version="1.1" id="Capa_1" xmlns="http://www.w3.org/2000/svg" xmlns:xlink="http://www.w3.org/1999/xlink" x="0px" y="0px"
	 viewBox="0 0 512 512" style="enable-background:new 0 0 512 512;" xml:space="preserve">
<path style="fill:#B39A7C;" d="M512,256c0,141.386-114.614,256-256,256c-48.604,0-94.037-13.542-132.745-37.061
	c-0.01,0-0.021,0-0.031-0.021C49.35,430.013,0,348.773,0,256C0,114.614,114.614,0,256,0c63.782,0,122.115,23.333,166.937,61.928
	c0.01,0.01,0.021,0.021,0.031,0.021C477.487,108.884,512,178.406,512,256z"/>
<path style="fill:#D9CCBC;" d="M493.868,256c0,131.367-106.501,237.868-237.868,237.868c-45.164,0-87.374-12.578-123.348-34.44
	c0,0-0.01,0-0.021-0.021c-12.153-7.387-23.582-15.832-34.171-25.198C49.194,390.631,18.132,326.952,18.132,256
	C18.132,124.633,124.633,18.132,256,18.132c59.265,0,113.464,21.675,155.115,57.545c0.01,0.01,0.021,0.021,0.031,0.021
	c8.206,7.066,15.915,14.671,23.084,22.784c0,0,0,0,0.01,0.01C471.354,140.433,493.868,195.585,493.868,256z"/>
<path style="fill:#EBE5DD;" d="M493.868,256c0,131.367-106.501,237.868-237.868,237.868c-45.164,0-87.374-12.578-123.348-34.44
	c0,0-0.01,0-0.021-0.021c-12.153-7.387-23.582-15.832-34.171-25.198c-37.092-41.941-59.607-97.083-59.607-157.487
	c0-131.367,106.501-237.868,237.868-237.868c59.265,0,113.464,21.675,155.115,57.545c0.01,0.01,0.021,0.021,0.031,0.021
	c0.787,0.684,1.575,1.368,2.362,2.062c0,0,0,0,0.01,0.01C471.354,140.433,493.868,195.585,493.868,256z"/>
<path style="fill:#5EAC24;" d="M453.158,256c0,20.151-23.407,36.357-29.31,54.539c-6.119,18.845,3.08,45.672-8.335,61.359
	c-11.53,15.843-39.965,15.329-55.806,26.859c-15.686,11.416-23.921,38.681-42.765,44.8c-18.183,5.904-40.788-11.12-60.938-11.12
	c-20.151,0-42.756,17.025-60.938,11.122c-18.845-6.119-27.08-33.384-42.766-44.8c-15.843-11.53-44.277-11.016-55.807-26.859
	c-11.416-15.686-2.217-42.513-8.335-61.359c-5.904-18.183-29.31-34.388-29.31-54.539s23.407-36.357,29.31-54.539
	c6.119-18.845-3.08-45.672,8.335-61.359c11.53-15.843,39.965-15.329,55.807-26.859c15.686-11.416,23.92-38.681,42.765-44.8
	c18.183-5.904,40.788,11.12,60.938,11.12c20.151,0,42.756-17.025,60.938-11.122c18.845,6.119,27.08,33.384,42.766,44.8
	c15.843,11.53,44.277,11.016,55.806,26.859c11.416,15.686,2.217,42.513,8.335,61.359C429.751,219.643,453.158,235.849,453.158,256z"
	/>
<path style="fill:#7ED63E;" d="M307.404,413.618c-3.425-0.487-9.689-2.651-14.41-4.283c-10.827-3.741-23.099-7.983-36.994-7.983
	c-13.894,0-26.167,4.242-36.994,7.983c-4.723,1.632-10.985,3.796-14.41,4.282c-2.56-2.385-6.681-8.332-9.521-12.431
	c-6.38-9.209-13.612-19.646-24.488-27.561c-10.982-7.992-23.225-11.698-34.028-14.968c-4.741-1.435-11.626-3.519-14.656-5.197
	c-0.637-3.382-0.506-10.477-0.414-15.367c0.209-11.324,0.448-24.157-3.773-37.154c-4.104-12.641-11.727-22.643-18.453-31.466
	c-3.002-3.94-7.865-10.319-9.151-13.472c1.286-3.154,6.149-9.532,9.151-13.472c6.725-8.824,14.349-18.825,18.454-31.468
	c4.219-12.995,3.982-25.829,3.772-37.15c-0.091-4.891-0.223-11.987,0.414-15.368c3.03-1.677,9.913-3.762,14.656-5.197
	c10.802-3.27,23.046-6.975,34.027-14.966c10.877-7.917,18.109-18.354,24.489-27.562c2.839-4.098,6.958-10.042,9.519-12.429
	c3.448,0.491,9.698,2.651,14.413,4.28c10.827,3.741,23.099,7.983,36.994,7.983c13.894,0,26.167-4.242,36.993-7.983
	c4.724-1.632,10.987-3.796,14.411-4.283c2.56,2.385,6.681,8.333,9.521,12.432c6.38,9.209,13.612,19.646,24.488,27.561
	c10.982,7.992,23.225,11.698,34.028,14.968c4.741,1.435,11.626,3.519,14.656,5.197c0.637,3.382,0.506,10.477,0.414,15.367
	c-0.209,11.324-0.448,24.157,3.773,37.154c4.104,12.641,11.727,22.643,18.453,31.466c3.002,3.94,7.865,10.319,9.151,13.472
	c-1.286,3.154-6.149,9.532-9.151,13.472c-6.725,8.824-14.349,18.825-18.454,31.469c-4.219,12.995-3.982,25.829-3.772,37.15
	c0.091,4.891,0.223,11.987-0.414,15.368c-3.03,1.677-9.913,3.762-14.656,5.197c-10.802,3.27-23.046,6.975-34.027,14.967
	c-10.877,7.917-18.109,18.353-24.489,27.562C314.086,405.285,309.964,411.233,307.404,413.618z"/>
<g>
	<circle style="fill:#4E901E;" cx="226.906" cy="325.916" r="64.932"/>
	<circle style="fill:#4E901E;" cx="422.481" cy="222.472" r="64.933"/>
</g>
<path style="fill:#91DC5A;" d="M476.099,222.472c0,29.612-24.006,53.618-53.618,53.618c-8.745,0-17.002-2.093-24.297-5.802
	c-17.406-8.869-29.322-26.949-29.322-47.816c0-29.622,24.007-53.618,53.618-53.618c16.391,0,31.052,7.346,40.885,18.93
	C471.312,197.139,476.099,209.241,476.099,222.472z"/>
<path style="fill:#A5001E;" d="M285.052,71.325c0,15.034-10.164,27.747-24.152,31.933c-3.17,0.964-6.548,1.471-10.04,1.471
	c-18.888,0-34.191-14.951-34.191-33.404s15.303-33.414,34.191-33.414c7.014,0,13.531,2.062,18.961,5.605
	C279.001,49.505,285.052,59.731,285.052,71.325z"/>
<path style="fill:#C70024;" d="M285.052,71.325c0,15.034-10.164,27.747-24.152,31.933c-9.18-5.978-15.22-16.194-15.22-27.788
	c0-15.034,10.164-27.757,24.141-31.953C279.001,49.505,285.052,59.731,285.052,71.325z"/>
<path style="fill:#A5001E;" d="M391.76,325.149c0,21.033-15.303,38.077-34.191,38.077c-18.878,0-34.191-17.044-34.191-38.077
	c0-4.538,0.715-8.9,2.031-12.941c4.756-14.651,17.365-25.125,32.161-25.125c14.806,0,27.405,10.475,32.161,25.125
	C391.046,316.249,391.76,320.611,391.76,325.149z"/>
<path style="fill:#C70024;" d="M389.73,312.208c-4.756,14.651-17.355,25.115-32.161,25.115c-14.796,0-27.395-10.465-32.161-25.115
	c4.756-14.65,17.365-25.125,32.161-25.125C372.375,287.083,384.974,297.558,389.73,312.208z"/>
<path style="fill:#A5001E;" d="M342.546,438.862c0,18.878-15.303,34.191-34.191,34.191c-18.878,0-34.181-15.314-34.181-34.191
	c0-2.746,0.321-5.408,0.932-7.968c3.595-15.044,17.116-26.224,33.249-26.224c12.309,0,23.095,6.496,29.114,16.246
	C340.691,426.138,342.546,432.282,342.546,438.862z"/>
<path style="fill:#C70024;" d="M337.469,420.916c-3.585,15.044-17.116,26.234-33.259,26.234c-12.299,0-23.084-6.507-29.104-16.256
	c3.595-15.044,17.116-26.224,33.249-26.224C320.663,404.67,331.449,411.167,337.469,420.916z"/>
<path style="fill:#A5001E;" d="M116.385,317.845c-2.642,5.906-6.849,11.366-12.495,15.728c-16.65,12.848-39.496,11.138-51.028-3.813
	c-11.542-14.951-7.387-37.476,9.263-50.323c1.969-1.523,4.03-2.849,6.154-3.958c15.749-8.299,34.709-5.408,44.874,7.771
	C120.778,293.134,121.545,306.323,116.385,317.845z"/>
<path style="fill:#C70024;" d="M116.385,317.845c-15.759,8.299-34.709,5.408-44.874-7.771c-7.626-9.884-8.403-23.074-3.233-34.595
	c15.749-8.299,34.709-5.408,44.874,7.771C120.778,293.134,121.545,306.323,116.385,317.845z"/>
<circle style="fill:#4E901E;" cx="181.919" cy="219.778" r="64.932"/>
<path style="fill:#91DC5A;" d="M235.537,219.778c0,29.612-24.006,53.618-53.618,53.618c-8.745,0-17.013-2.093-24.307-5.813
	c-17.396-8.859-29.311-26.939-29.311-47.806c0-29.612,24.006-53.618,53.618-53.618c16.381,0,31.052,7.346,40.885,18.94
	C230.75,194.445,235.537,206.547,235.537,219.778z"/>
<circle style="fill:#4E901E;" cx="295.548" cy="184.095" r="64.932"/>
<g>
	<path style="fill:#91DC5A;" d="M349.166,184.095c0,29.612-24.006,53.618-53.618,53.618c-8.755,0-17.023-2.103-24.328-5.823
		c-17.386-8.869-29.291-26.939-29.291-47.795c0-29.612,23.996-53.618,53.618-53.618c16.381,0,31.052,7.346,40.885,18.94
		C344.379,158.762,349.166,170.864,349.166,184.095z"/>
	<path style="fill:#91DC5A;" d="M280.525,325.916c0,29.612-24.006,53.618-53.618,53.618c-8.745,0-17.002-2.093-24.297-5.802
		c-17.407-8.869-29.322-26.949-29.322-47.816c0-29.612,24.006-53.618,53.618-53.618c16.381,0,31.042,7.346,40.874,18.919
		C275.727,300.563,280.525,312.685,280.525,325.916z"/>
</g>
<g>
	<path style="fill:#B6E892;" d="M476.099,222.472c0,29.612-24.006,53.618-53.618,53.618c-8.745,0-17.002-2.093-24.297-5.802
		c-7.947-9.346-12.744-21.468-12.744-34.699c0-29.612,24.006-53.618,53.618-53.618c8.745,0,17.013,2.093,24.307,5.813
		C471.312,197.139,476.099,209.241,476.099,222.472z"/>
	<path style="fill:#B6E892;" d="M235.537,219.778c0,29.612-24.006,53.618-53.618,53.618c-8.745,0-17.013-2.093-24.307-5.813
		c-7.947-9.346-12.734-21.447-12.734-34.678c0-29.612,24.006-53.618,53.618-53.618c8.745,0,17.013,2.093,24.307,5.813
		C230.75,194.445,235.537,206.547,235.537,219.778z"/>
	<path style="fill:#B6E892;" d="M349.166,184.095c0,29.612-24.006,53.618-53.618,53.618c-8.755,0-17.023-2.103-24.328-5.823
		c-7.926-9.346-12.713-21.447-12.713-34.668c0-29.612,23.996-53.618,53.618-53.618c8.745,0,17.013,2.093,24.307,5.813
		C344.379,158.762,349.166,170.864,349.166,184.095z"/>
	<path style="fill:#B6E892;" d="M280.525,325.916c0,29.612-24.006,53.618-53.618,53.618c-8.745,0-17.002-2.093-24.297-5.802
		c-7.947-9.346-12.744-21.468-12.744-34.699c0-29.612,24.006-53.618,53.618-53.618c8.745,0,17.002,2.093,24.297,5.802
		C275.727,300.563,280.525,312.685,280.525,325.916z"/>
</g>
<g>
	<circle style="fill:#6DC82A;" cx="198.331" cy="325.44" r="8.98"/>
	<circle style="fill:#6DC82A;" cx="225.994" cy="328.869" r="8.98"/>
	<circle style="fill:#6DC82A;" cx="224.057" cy="359.797" r="8.98"/>
	<circle style="fill:#6DC82A;" cx="263.771" cy="326.476" r="8.98"/>
	<circle style="fill:#6DC82A;" cx="232.346" cy="297.807" r="8.98"/>
	<circle style="fill:#6DC82A;" cx="393.998" cy="222.845" r="8.98"/>
	<circle style="fill:#6DC82A;" cx="421.673" cy="226.274" r="8.98"/>
	<circle style="fill:#6DC82A;" cx="419.735" cy="257.212" r="8.98"/>
	<circle style="fill:#6DC82A;" cx="459.449" cy="223.881" r="8.98"/>
	<circle style="fill:#6DC82A;" cx="428.024" cy="195.212" r="8.98"/>
	<circle style="fill:#6DC82A;" cx="150.359" cy="216.804" r="8.98"/>
	<circle style="fill:#6DC82A;" cx="178.023" cy="220.234" r="8.98"/>
	<circle style="fill:#6DC82A;" cx="176.085" cy="251.161" r="8.98"/>
	<circle style="fill:#6DC82A;" cx="215.799" cy="217.84" r="8.98"/>
	<circle style="fill:#6DC82A;" cx="184.374" cy="189.171" r="8.98"/>
	<circle style="fill:#6DC82A;" cx="266.537" cy="184.768" r="8.98"/>
	<circle style="fill:#6DC82A;" cx="294.201" cy="188.198" r="8.98"/>
	<circle style="fill:#6DC82A;" cx="292.264" cy="219.136" r="8.98"/>
	<circle style="fill:#6DC82A;" cx="331.977" cy="185.804" r="8.98"/>
	<circle style="fill:#6DC82A;" cx="300.552" cy="157.135" r="8.98"/>
</g>
<g>
</g>
<g>
</g>
<g>
</g>
<g>
</g>
<g>
</g>
<g>
</g>
<g>
</g>
<g>
</g>
<g>
</g>
<g>
</g>
<g>
</g>
<g>
</g>
<g>
</g>
<g>
</g>
<g>
</g>
</svg>
